<svg xmlns="http://www.w3.org/2000/svg" width="1800" height="2400" viewBox="0 0 1800 2400">
<defs>
      <filter id="card-shadow" x="-20%" y="-25%" width="140%" height="160%">
        <feDropShadow dx="0" dy="3" stdDeviation="4" flood-color="#2b1117" flood-opacity="0.10"/>
      </filter>
      <marker id="arrow-sequence" markerWidth="17" markerHeight="13" refX="15" refY="6.5" orient="auto" markerUnits="userSpaceOnUse">
    <path d="M1,1 L16,6.5 L1,12 Z" fill="#53675d" stroke="#ffffff" stroke-width="1.3" stroke-linejoin="round"/>
  </marker>
      <marker id="arrow-message" markerWidth="17" markerHeight="13" refX="15" refY="6.5" orient="auto" markerUnits="userSpaceOnUse">
    <path d="M1,1 L16,6.5 L1,12 Z" fill="#bc002d" stroke="#ffffff" stroke-width="1.3" stroke-linejoin="round"/>
  </marker>
      <marker id="arrow-loop" markerWidth="17" markerHeight="13" refX="15" refY="6.5" orient="auto" markerUnits="userSpaceOnUse">
    <path d="M1,1 L16,6.5 L1,12 Z" fill="#3478db" stroke="#ffffff" stroke-width="1.3" stroke-linejoin="round"/>
  </marker>
      <style>
        text { font-family: "Apple SD Gothic Neo", "Noto Sans CJK KR", "Noto Sans KR", sans-serif; }
        .mono { font-family: "SFMono-Regular", "Menlo", monospace; }
      </style>
    </defs>
<rect width="1800" height="2400" fill="#ffffff"/>
<rect x="0" y="0" width="1800" height="240" fill="#18080c"/>
<rect x="0" y="0" width="1800" height="9" fill="#bc002d"/>

    <text x="40" y="45" font-size="19" font-weight="800" fill="#ffffff">대한민국 제도 100</text>
    <text x="252" y="45" font-size="15" font-weight="650" fill="#b39ba1">비교법 업무구조도 · 일본</text>
    <text x="1760" y="45" text-anchor="end" font-size="15" fill="#b39ba1">기준일 2026-07-14</text>
    <text x="40" y="82" font-size="14" font-weight="750" fill="#b39ba1">NO JP-01</text>
    <text x="122" y="82" font-size="14" font-weight="750" fill="#ff9aad">해외비교·환경</text>
    <text x="340" y="82" font-size="14" font-weight="650" fill="#e8ccd2">環境影響評価法</text>
    <text x="40" y="132" font-size="48" font-weight="850" fill="#ffffff">일본 환경영향평가</text>
    <text x="40" y="174" font-size="19" font-weight="520" fill="#e8ccd2">일본은 배려서-방법서-준비서-평가서 문서 단계를 중심으로 환경영향평가 절차를 진행한다</text>
    <rect x="40" y="192" width="260" height="32" rx="5" fill="#310a13" stroke="#7c1a2d" stroke-width="1"/>
    <circle cx="58" cy="208" r="5" fill="#ff9aad"/>
    <text x="72" y="214" font-size="14" font-weight="750" fill="#ffb4c2">e-Gov 원문 연결</text>
    <g transform="translate(1460 84)">
      <rect x="0" y="0" width="226" height="88" rx="8" fill="#ffffff" stroke="#f2c8d0" stroke-width="1.5"/>
      <circle cx="48" cy="44" r="27" fill="#bc002d"/>
      <text x="92" y="38" font-size="18" font-weight="850" fill="#18080c">JAPAN</text>
      <text x="92" y="63" font-size="13.5" font-weight="700" fill="#75525a">환경영향평가법</text>
    </g>
    <text x="1760" y="214" text-anchor="end" font-size="16" font-weight="750" fill="#f2dbe0">노드 23 · 레인 6 · 게이트 7</text>

<rect x="38" y="260" width="1724" height="1940" rx="10" fill="#ffffff" stroke="#c8d1cf" stroke-width="2"/>
<rect x="38" y="260" width="190" height="100" rx="10" fill="#f8eef0"/>
<text x="58" y="299" font-size="17" font-weight="800" fill="#17231d">단계 ↓</text>
<text x="58" y="332" font-size="15" font-weight="650" fill="#68776f">행위자 묶음 →</text>
<rect x="38" y="360" width="1724" height="295.43" fill="#fbfcfb"/>
<rect x="38" y="360" width="190" height="295.43" fill="#f0f3f2"/>
<text x="58" y="392" class="mono" font-size="16" font-weight="800" fill="#53645b">J0</text>
<text x="58" y="425" font-size="19" font-weight="800" fill="#53645b"><tspan x="58" dy="0">대상·판정</tspan></text>
<rect x="38" y="655.43" width="1724" height="295.43" fill="#fff7f8"/>
<rect x="38" y="655.43" width="190" height="295.43" fill="#bc002d"/>
<text x="58" y="687.43" class="mono" font-size="16" font-weight="800" fill="#ffffff">J1</text>
<text x="58" y="720.43" font-size="19" font-weight="800" fill="#ffffff"><tspan x="58" dy="0">계획단계 배려서</tspan></text>
<rect x="38" y="950.86" width="1724" height="181.43" fill="#fff7f8"/>
<rect x="38" y="950.86" width="190" height="181.43" fill="#bc002d"/>
<text x="58" y="982.86" class="mono" font-size="16" font-weight="800" fill="#ffffff">J2</text>
<text x="58" y="1015.86" font-size="19" font-weight="800" fill="#ffffff"><tspan x="58" dy="0">방법서 스코핑</tspan></text>
<rect x="38" y="1132.29" width="1724" height="295.43" fill="#fff7f8"/>
<rect x="38" y="1132.29" width="190" height="295.43" fill="#bc002d"/>
<text x="58" y="1164.29" class="mono" font-size="16" font-weight="800" fill="#ffffff">J3</text>
<text x="58" y="1197.29" font-size="19" font-weight="800" fill="#ffffff"><tspan x="58" dy="0">평가 실시</tspan></text>
<rect x="38" y="1427.71" width="1724" height="181.43" fill="#fff7f8"/>
<rect x="38" y="1427.71" width="190" height="181.43" fill="#bc002d"/>
<text x="58" y="1459.71" class="mono" font-size="16" font-weight="800" fill="#ffffff">J4</text>
<text x="58" y="1492.71" font-size="19" font-weight="800" fill="#ffffff"><tspan x="58" dy="0">준비서 의견수렴</tspan></text>
<rect x="38" y="1609.14" width="1724" height="295.43" fill="#fff7f8"/>
<rect x="38" y="1609.14" width="190" height="295.43" fill="#bc002d"/>
<text x="58" y="1641.14" class="mono" font-size="16" font-weight="800" fill="#ffffff">J5</text>
<text x="58" y="1674.14" font-size="19" font-weight="800" fill="#ffffff"><tspan x="58" dy="0">평가서 보정·공고</tspan></text>
<rect x="38" y="1904.57" width="1724" height="295.43" fill="#fbfcfb"/>
<rect x="38" y="1904.57" width="190" height="295.43" fill="#f0f3f2"/>
<text x="58" y="1936.57" class="mono" font-size="16" font-weight="800" fill="#53645b">J6</text>
<text x="58" y="1969.57" font-size="19" font-weight="800" fill="#53645b"><tspan x="58" dy="0">실행·사후보고</tspan></text>
<rect x="228" y="260" width="383.5" height="100" fill="#fbf8f8"/>
<rect x="228" y="260" width="383.5" height="7" fill="#bc002d"/>
<text x="248" y="299" font-size="20" font-weight="800" fill="#17231d">사업 준비·작성</text>
<text x="248" y="329" font-size="13.5" font-weight="600" fill="#68776f"><tspan x="248" dy="0">사업자</tspan></text>
<rect x="611.5" y="260" width="383.5" height="100" fill="#fbf8f8"/>
<rect x="611.5" y="260" width="383.5" height="7" fill="#3b82f6"/>
<text x="631.5" y="299" font-size="20" font-weight="800" fill="#17231d">주무·환경대신</text>
<text x="631.5" y="329" font-size="13.5" font-weight="600" fill="#68776f"><tspan x="631.5" dy="0">주무대신·면허권자 · 환경대신</tspan></text>
<rect x="995" y="260" width="383.5" height="100" fill="#fbf8f8"/>
<rect x="995" y="260" width="383.5" height="7" fill="#7c3aed"/>
<text x="1015" y="299" font-size="20" font-weight="800" fill="#17231d">지자체·주민</text>
<text x="1015" y="329" font-size="13.5" font-weight="600" fill="#68776f"><tspan x="1015" dy="0">도도부현·시정촌 · 주민·일반</tspan></text>
<rect x="1378.5" y="260" width="383.5" height="100" fill="#fbf8f8"/>
<rect x="1378.5" y="260" width="383.5" height="7" fill="#d9901a"/>
<text x="1398.5" y="299" font-size="20" font-weight="800" fill="#17231d">공고·종람</text>
<text x="1398.5" y="329" font-size="13.5" font-weight="600" fill="#68776f"><tspan x="1398.5" dy="0">공고·종람·인터넷</tspan></text>
<line x1="228" y1="260" x2="228" y2="2200" stroke="#d5ddda" stroke-width="1.5"/>
<line x1="611.5" y1="260" x2="611.5" y2="2200" stroke="#d5ddda" stroke-width="1.5"/>
<line x1="995" y1="260" x2="995" y2="2200" stroke="#d5ddda" stroke-width="1.5"/>
<line x1="1378.5" y1="260" x2="1378.5" y2="2200" stroke="#d5ddda" stroke-width="1.5"/>
<line x1="1762" y1="260" x2="1762" y2="2200" stroke="#d5ddda" stroke-width="1.5"/>
<line x1="38" y1="360" x2="1762" y2="360" stroke="#c8d1cf" stroke-width="2"/>
<line x1="38" y1="360" x2="1762" y2="360" stroke="#cbd5d1" stroke-width="1.5"/>
<line x1="38" y1="655.43" x2="1762" y2="655.43" stroke="#cbd5d1" stroke-width="1.5"/>
<line x1="38" y1="950.86" x2="1762" y2="950.86" stroke="#cbd5d1" stroke-width="1.5"/>
<line x1="38" y1="1132.29" x2="1762" y2="1132.29" stroke="#cbd5d1" stroke-width="1.5"/>
<line x1="38" y1="1427.71" x2="1762" y2="1427.71" stroke="#cbd5d1" stroke-width="1.5"/>
<line x1="38" y1="1609.14" x2="1762" y2="1609.14" stroke="#cbd5d1" stroke-width="1.5"/>
<line x1="38" y1="1904.57" x2="1762" y2="1904.57" stroke="#cbd5d1" stroke-width="1.5"/>
<line x1="38" y1="2200" x2="1762" y2="2200" stroke="#c8d1cf" stroke-width="2"/>
<path d="M 409.75 495.71 V 511.71" fill="none" stroke="#ffffff" stroke-width="7.4"  stroke-linecap="round" stroke-linejoin="round" opacity="0.94"/>
<path d="M 409.75 495.71 V 511.71" fill="none" stroke="#53675d" stroke-width="3.4"  marker-end="url(#arrow-sequence)" stroke-linecap="round" stroke-linejoin="round" opacity="0.96"/>
<rect x="546.32" y="492.71" width="116.86" height="30" rx="6" fill="#ffffff" stroke="#53675d" stroke-width="1.4"/>
<text x="604.75" y="512.71" text-anchor="middle" font-size="14" font-weight="750" fill="#53675d">제2종이면 신고</text>
<path d="M 554.75 462.71 H 606.5 V 643.43 H 399.75 V 693.14" fill="none" stroke="#ffffff" stroke-width="7.4"  stroke-linecap="round" stroke-linejoin="round" opacity="0.94"/>
<path d="M 554.75 462.71 H 606.5 V 643.43 H 399.75 V 693.14" fill="none" stroke="#53675d" stroke-width="3.4"  marker-end="url(#arrow-sequence)" stroke-linecap="round" stroke-linejoin="round" opacity="0.96"/>
<rect x="359.32" y="611.43" width="116.86" height="30" rx="6" fill="#ffffff" stroke="#53675d" stroke-width="1.4"/>
<text x="417.75" y="631.43" text-anchor="middle" font-size="14" font-weight="750" fill="#53675d">제1종은 배려서</text>
<path d="M 554.75 564.71 H 627.25 V 507.71 H 660.25" fill="none" stroke="#ffffff" stroke-width="7.4" stroke-dasharray="11 8" stroke-linecap="round" stroke-linejoin="round" opacity="0.94"/>
<path d="M 554.75 564.71 H 627.25 V 507.71 H 660.25" fill="none" stroke="#bc002d" stroke-width="3.4" stroke-dasharray="11 8" marker-end="url(#arrow-message)" stroke-linecap="round" stroke-linejoin="round" opacity="0.96"/>
<rect x="557.34" y="504.21" width="108.32" height="30" rx="6" fill="#ffffff" stroke="#bc002d" stroke-width="1.4"/>
<text x="611.5" y="524.21" text-anchor="middle" font-size="14" font-weight="750" fill="#bc002d">신고·의견조회</text>
<path d="M 819.25 552.71 V 611.43 H 580.5 V 752.14 H 562.75" fill="none" stroke="#ffffff" stroke-width="7.4"  stroke-linecap="round" stroke-linejoin="round" opacity="0.94"/>
<path d="M 819.25 552.71 V 611.43 H 580.5 V 752.14 H 562.75" fill="none" stroke="#53675d" stroke-width="3.4"  marker-end="url(#arrow-sequence)" stroke-linecap="round" stroke-linejoin="round" opacity="0.96"/>
<rect x="651.88" y="579.43" width="96" height="30" rx="6" fill="#ffffff" stroke="#53675d" stroke-width="1.4"/>
<text x="699.88" y="599.43" text-anchor="middle" font-size="14" font-weight="750" fill="#53675d">필요 판정</text>
<path d="M 419.75 791.14 V 807.14 H 405.75 V 807.14" fill="none" stroke="#ffffff" stroke-width="7.4"  stroke-linecap="round" stroke-linejoin="round" opacity="0.94"/>
<path d="M 419.75 791.14 V 807.14 H 405.75 V 807.14" fill="none" stroke="#53675d" stroke-width="3.4"  marker-end="url(#arrow-sequence)" stroke-linecap="round" stroke-linejoin="round" opacity="0.96"/>
<path d="M 554.75 866.14 H 640.25 V 809.14 H 660.25" fill="none" stroke="#ffffff" stroke-width="7.4" stroke-dasharray="11 8" stroke-linecap="round" stroke-linejoin="round" opacity="0.94"/>
<path d="M 554.75 866.14 H 640.25 V 809.14 H 660.25" fill="none" stroke="#bc002d" stroke-width="3.4" stroke-dasharray="11 8" marker-end="url(#arrow-message)" stroke-linecap="round" stroke-linejoin="round" opacity="0.96"/>
<rect x="563.5" y="805.64" width="96" height="30" rx="6" fill="#ffffff" stroke="#bc002d" stroke-width="1.4"/>
<text x="611.5" y="825.64" text-anchor="middle" font-size="14" font-weight="750" fill="#bc002d">송부·의견</text>
<path d="M 554.75 884.14 H 997.75 V 785.14 H 1043.75" fill="none" stroke="#ffffff" stroke-width="7.4" stroke-dasharray="11 8" stroke-linecap="round" stroke-linejoin="round" opacity="0.94"/>
<path d="M 554.75 884.14 H 997.75 V 785.14 H 1043.75" fill="none" stroke="#bc002d" stroke-width="3.4" stroke-dasharray="11 8" marker-end="url(#arrow-message)" stroke-linecap="round" stroke-linejoin="round" opacity="0.96"/>
<rect x="746.71" y="802.64" width="113.08" height="30" rx="6" fill="#ffffff" stroke="#bc002d" stroke-width="1.4"/>
<text x="803.25" y="822.64" text-anchor="middle" font-size="14" font-weight="750" fill="#bc002d">의견 청취 노력</text>
<path d="M 813.25 848.14 V 922.86 H 411.75 V 988.57" fill="none" stroke="#ffffff" stroke-width="7.4"  stroke-linecap="round" stroke-linejoin="round" opacity="0.94"/>
<path d="M 813.25 848.14 V 922.86 H 411.75 V 988.57" fill="none" stroke="#53675d" stroke-width="3.4"  marker-end="url(#arrow-sequence)" stroke-linecap="round" stroke-linejoin="round" opacity="0.96"/>
<rect x="564.5" y="890.86" width="96" height="30" rx="6" fill="#ffffff" stroke="#53675d" stroke-width="1.4"/>
<text x="612.5" y="910.86" text-anchor="middle" font-size="14" font-weight="750" fill="#53675d">의견 반영</text>
<path d="M 1196.75 848.14 V 890.86 H 619.5 V 1065.57 H 562.75" fill="none" stroke="#ffffff" stroke-width="7.4"  stroke-linecap="round" stroke-linejoin="round" opacity="0.94"/>
<path d="M 1196.75 848.14 V 890.86 H 619.5 V 1065.57 H 562.75" fill="none" stroke="#53675d" stroke-width="3.4"  marker-end="url(#arrow-sequence)" stroke-linecap="round" stroke-linejoin="round" opacity="0.96"/>
<rect x="860.13" y="858.86" width="96" height="30" rx="6" fill="#ffffff" stroke="#53675d" stroke-width="1.4"/>
<text x="908.13" y="878.86" text-anchor="middle" font-size="14" font-weight="750" fill="#53675d">의견 반영</text>
<path d="M 554.75 1071.57 H 1368.25 V 1023.57 H 1427.25" fill="none" stroke="#ffffff" stroke-width="7.4"  stroke-linecap="round" stroke-linejoin="round" opacity="0.94"/>
<path d="M 554.75 1071.57 H 1368.25 V 1023.57 H 1427.25" fill="none" stroke="#53675d" stroke-width="3.4"  marker-end="url(#arrow-sequence)" stroke-linecap="round" stroke-linejoin="round" opacity="0.96"/>
<path d="M 1435.25 1041.57 H 1349.75 V 1047.57 H 1329.75" fill="none" stroke="#ffffff" stroke-width="7.4" stroke-dasharray="11 8" stroke-linecap="round" stroke-linejoin="round" opacity="0.94"/>
<path d="M 1435.25 1041.57 H 1349.75 V 1047.57 H 1329.75" fill="none" stroke="#bc002d" stroke-width="3.4" stroke-dasharray="11 8" marker-end="url(#arrow-message)" stroke-linecap="round" stroke-linejoin="round" opacity="0.96"/>
<rect x="1330.5" y="1012.57" width="96" height="30" rx="6" fill="#ffffff" stroke="#bc002d" stroke-width="1.4"/>
<text x="1378.5" y="1032.57" text-anchor="middle" font-size="14" font-weight="750" fill="#bc002d">의견 수렴</text>
<path d="M 1170.75 1086.57 V 1088.29 H 606.5 V 1235 H 562.75" fill="none" stroke="#ffffff" stroke-width="7.4"  stroke-linecap="round" stroke-linejoin="round" opacity="0.94"/>
<path d="M 1170.75 1086.57 V 1088.29 H 606.5 V 1235 H 562.75" fill="none" stroke="#53675d" stroke-width="3.4"  marker-end="url(#arrow-sequence)" stroke-linecap="round" stroke-linejoin="round" opacity="0.96"/>
<rect x="840.63" y="1056.29" width="96" height="30" rx="6" fill="#ffffff" stroke="#53675d" stroke-width="1.4"/>
<text x="888.63" y="1076.29" text-anchor="middle" font-size="14" font-weight="750" fill="#53675d">의견 감안</text>
<path d="M 409.75 1268 V 1284" fill="none" stroke="#ffffff" stroke-width="7.4"  stroke-linecap="round" stroke-linejoin="round" opacity="0.94"/>
<path d="M 409.75 1268 V 1284" fill="none" stroke="#53675d" stroke-width="3.4"  marker-end="url(#arrow-sequence)" stroke-linecap="round" stroke-linejoin="round" opacity="0.96"/>
<path d="M 435.75 1382 V 1415.71 H 409.75 V 1465.43" fill="none" stroke="#ffffff" stroke-width="7.4"  stroke-linecap="round" stroke-linejoin="round" opacity="0.94"/>
<path d="M 435.75 1382 V 1415.71 H 409.75 V 1465.43" fill="none" stroke="#53675d" stroke-width="3.4"  marker-end="url(#arrow-sequence)" stroke-linecap="round" stroke-linejoin="round" opacity="0.96"/>
<rect x="374.75" y="1383.71" width="96" height="30" rx="6" fill="#ffffff" stroke="#53675d" stroke-width="1.4"/>
<text x="422.75" y="1403.71" text-anchor="middle" font-size="14" font-weight="750" fill="#53675d">결과 정리</text>
<path d="M 554.75 1530.43 H 1394.25 V 1518.43 H 1427.25" fill="none" stroke="#ffffff" stroke-width="7.4"  stroke-linecap="round" stroke-linejoin="round" opacity="0.94"/>
<path d="M 554.75 1530.43 H 1394.25 V 1518.43 H 1427.25" fill="none" stroke="#53675d" stroke-width="3.4"  marker-end="url(#arrow-sequence)" stroke-linecap="round" stroke-linejoin="round" opacity="0.96"/>
<path d="M 1435.25 1518.43 H 1375.75 V 1524.43 H 1329.75" fill="none" stroke="#ffffff" stroke-width="7.4" stroke-dasharray="11 8" stroke-linecap="round" stroke-linejoin="round" opacity="0.94"/>
<path d="M 1435.25 1518.43 H 1375.75 V 1524.43 H 1329.75" fill="none" stroke="#bc002d" stroke-width="3.4" stroke-dasharray="11 8" marker-end="url(#arrow-message)" stroke-linecap="round" stroke-linejoin="round" opacity="0.96"/>
<rect x="1330.5" y="1489.43" width="96" height="30" rx="6" fill="#ffffff" stroke="#bc002d" stroke-width="1.4"/>
<text x="1378.5" y="1509.43" text-anchor="middle" font-size="14" font-weight="750" fill="#bc002d">의견 수렴</text>
<path d="M 1176.75 1563.43 V 1597.14 H 423.75 V 1646.86" fill="none" stroke="#ffffff" stroke-width="7.4"  stroke-linecap="round" stroke-linejoin="round" opacity="0.94"/>
<path d="M 1176.75 1563.43 V 1597.14 H 423.75 V 1646.86" fill="none" stroke="#53675d" stroke-width="3.4"  marker-end="url(#arrow-sequence)" stroke-linecap="round" stroke-linejoin="round" opacity="0.96"/>
<rect x="743.64" y="1565.14" width="113.22" height="30" rx="6" fill="#ffffff" stroke="#53675d" stroke-width="1.4"/>
<text x="800.25" y="1585.14" text-anchor="middle" font-size="14" font-weight="750" fill="#53675d">의견·견해 반영</text>
<path d="M 554.75 1699.86 H 640.25 V 1762.86 H 660.25" fill="none" stroke="#ffffff" stroke-width="7.4" stroke-dasharray="11 8" stroke-linecap="round" stroke-linejoin="round" opacity="0.94"/>
<path d="M 554.75 1699.86 H 640.25 V 1762.86 H 660.25" fill="none" stroke="#bc002d" stroke-width="3.4" stroke-dasharray="11 8" marker-end="url(#arrow-message)" stroke-linecap="round" stroke-linejoin="round" opacity="0.96"/>
<rect x="563.5" y="1699.36" width="96" height="30" rx="6" fill="#ffffff" stroke="#bc002d" stroke-width="1.4"/>
<text x="611.5" y="1719.36" text-anchor="middle" font-size="14" font-weight="750" fill="#bc002d">평가서 송부</text>
<path d="M 668.25 1744.86 H 595.75 V 1819.86 H 562.75" fill="none" stroke="#ffffff" stroke-width="7.4"  stroke-linecap="round" stroke-linejoin="round" opacity="0.94"/>
<path d="M 668.25 1744.86 H 595.75 V 1819.86 H 562.75" fill="none" stroke="#53675d" stroke-width="3.4"  marker-end="url(#arrow-sequence)" stroke-linecap="round" stroke-linejoin="round" opacity="0.96"/>
<rect x="563.5" y="1750.36" width="96" height="30" rx="6" fill="#ffffff" stroke="#53675d" stroke-width="1.4"/>
<text x="611.5" y="1770.36" text-anchor="middle" font-size="14" font-weight="750" fill="#53675d">의견 감안</text>
<path d="M 554.75 1837.86 H 1381.25 V 1762.86 H 1427.25" fill="none" stroke="#ffffff" stroke-width="7.4"  stroke-linecap="round" stroke-linejoin="round" opacity="0.94"/>
<path d="M 554.75 1837.86 H 1381.25 V 1762.86 H 1427.25" fill="none" stroke="#53675d" stroke-width="3.4"  marker-end="url(#arrow-sequence)" stroke-linecap="round" stroke-linejoin="round" opacity="0.96"/>
<rect x="947" y="1768.36" width="96" height="30" rx="6" fill="#ffffff" stroke="#53675d" stroke-width="1.4"/>
<text x="995" y="1788.36" text-anchor="middle" font-size="14" font-weight="750" fill="#53675d">확정 공고</text>
<path d="M 1592.25 1801.86 V 1844.57 H 835.25 V 1942.29" fill="none" stroke="#ffffff" stroke-width="7.4"  stroke-linecap="round" stroke-linejoin="round" opacity="0.94"/>
<path d="M 1592.25 1801.86 V 1844.57 H 835.25 V 1942.29" fill="none" stroke="#53675d" stroke-width="3.4"  marker-end="url(#arrow-sequence)" stroke-linecap="round" stroke-linejoin="round" opacity="0.96"/>
<rect x="1165.75" y="1812.57" width="96" height="30" rx="6" fill="#ffffff" stroke="#53675d" stroke-width="1.4"/>
<text x="1213.75" y="1832.57" text-anchor="middle" font-size="14" font-weight="750" fill="#53675d">공고 후</text>
<path d="M 668.25 2001.29 H 582.75 V 2007.29 H 562.75" fill="none" stroke="#ffffff" stroke-width="7.4"  stroke-linecap="round" stroke-linejoin="round" opacity="0.94"/>
<path d="M 668.25 2001.29 H 582.75 V 2007.29 H 562.75" fill="none" stroke="#53675d" stroke-width="3.4"  marker-end="url(#arrow-sequence)" stroke-linecap="round" stroke-linejoin="round" opacity="0.96"/>
<rect x="563.5" y="1972.29" width="96" height="30" rx="6" fill="#ffffff" stroke="#53675d" stroke-width="1.4"/>
<text x="611.5" y="1992.29" text-anchor="middle" font-size="14" font-weight="750" fill="#53675d">실시 가능</text>
<path d="M 409.75 2040.29 V 2056.29" fill="none" stroke="#ffffff" stroke-width="7.4"  stroke-linecap="round" stroke-linejoin="round" opacity="0.94"/>
<path d="M 409.75 2040.29 V 2056.29" fill="none" stroke="#53675d" stroke-width="3.4"  marker-end="url(#arrow-sequence)" stroke-linecap="round" stroke-linejoin="round" opacity="0.96"/>
<rect x="556.75" y="2037.29" width="96" height="30" rx="6" fill="#ffffff" stroke="#53675d" stroke-width="1.4"/>
<text x="604.75" y="2057.29" text-anchor="middle" font-size="14" font-weight="750" fill="#53675d">사후 보고</text>
<path d="M 554.75 2109.29 H 627.25 V 2103.29 H 660.25" fill="none" stroke="#ffffff" stroke-width="7.4" stroke-dasharray="11 8" stroke-linecap="round" stroke-linejoin="round" opacity="0.94"/>
<path d="M 554.75 2109.29 H 627.25 V 2103.29 H 660.25" fill="none" stroke="#bc002d" stroke-width="3.4" stroke-dasharray="11 8" marker-end="url(#arrow-message)" stroke-linecap="round" stroke-linejoin="round" opacity="0.96"/>
<rect x="563.5" y="2074.29" width="96" height="30" rx="6" fill="#ffffff" stroke="#bc002d" stroke-width="1.4"/>
<text x="611.5" y="2094.29" text-anchor="middle" font-size="14" font-weight="750" fill="#bc002d">보고서 의견</text>
<path d="M 284.75 1801.86 H 216 V 1112.29 H 379.75 V 1094.57" fill="none" stroke="#ffffff" stroke-width="8" stroke-dasharray="10 8" stroke-linecap="round" stroke-linejoin="round" opacity="0.94"/>
<path d="M 284.75 1801.86 H 216 V 1112.29 H 379.75 V 1094.57" fill="none" stroke="#3478db" stroke-width="4" stroke-dasharray="10 8" marker-end="url(#arrow-loop)" stroke-linecap="round" stroke-linejoin="round" opacity="0.96"/>
<rect x="214.13" y="1448.07" width="143.74" height="30" rx="6" fill="#ffffff" stroke="#3478db" stroke-width="1.4"/>
<text x="286" y="1468.07" text-anchor="middle" font-size="14" font-weight="750" fill="#3478db">중대 수정 시 재절차</text>
<path d="M 668.25 1995.29 H 203 V 1096.29 H 419.75 V 1094.57" fill="none" stroke="#ffffff" stroke-width="8" stroke-dasharray="10 8" stroke-linecap="round" stroke-linejoin="round" opacity="0.94"/>
<path d="M 668.25 1995.29 H 203 V 1096.29 H 419.75 V 1094.57" fill="none" stroke="#3478db" stroke-width="4" stroke-dasharray="10 8" marker-end="url(#arrow-loop)" stroke-linecap="round" stroke-linejoin="round" opacity="0.96"/>
<rect x="201.13" y="1530.79" width="143.74" height="30" rx="6" fill="#ffffff" stroke="#3478db" stroke-width="1.4"/>
<text x="273" y="1550.79" text-anchor="middle" font-size="14" font-weight="750" fill="#3478db">특별 사정 시 재실시</text>

    <g filter="url(#card-shadow)">
      <rect x="284.75" y="405.71" width="270" height="90" rx="8" fill="#fff0f3" stroke="#ce4962" stroke-width="2.3"/>
      <rect x="284.75" y="405.71" width="6" height="90" rx="3" fill="#ce4962"/>
      <text x="299.75" y="425.71" class="mono" font-size="12.5" font-weight="750" fill="#a7263e">◇ P01</text>
      <rect x="494.75" y="412.71" width="50" height="24" rx="5" fill="#ce4962" opacity="0.14"/>
      <text x="519.75" y="429.71" text-anchor="middle" font-size="12" font-weight="800" fill="#46111b">선행</text>
      <text x="299.75" y="462.71" font-size="15.5" font-weight="800" fill="#46111b"><tspan x="299.75" dy="0">제1종·제2종 대상 확인</tspan></text>
      <text x="299.75" y="487.71" font-size="11" font-weight="650" fill="#a7263e">제2조</text>
    </g>


    <g filter="url(#card-shadow)">
      <rect x="284.75" y="519.71" width="270" height="90" rx="8" fill="#ffffff" stroke="#bfc8c6" stroke-width="2.3"/>
      <rect x="284.75" y="519.71" width="6" height="90" rx="3" fill="#bfc8c6"/>
      <text x="299.75" y="539.71" class="mono" font-size="12.5" font-weight="750" fill="#68746f">P02</text>
      <rect x="494.75" y="526.71" width="50" height="24" rx="5" fill="#bfc8c6" opacity="0.14"/>
      <text x="519.75" y="543.71" text-anchor="middle" font-size="12" font-weight="800" fill="#17231d">후속</text>
      <text x="299.75" y="576.71" font-size="15.5" font-weight="800" fill="#17231d"><tspan x="299.75" dy="0">제2종사업 판정 신고</tspan></text>
      <text x="299.75" y="601.71" font-size="11" font-weight="650" fill="#68746f">제4조제1항</text>
    </g>


    <g filter="url(#card-shadow)">
      <rect x="668.25" y="462.71" width="270" height="90" rx="8" fill="#fff8e8" stroke="#d9901a" stroke-width="2.3"/>
      <rect x="668.25" y="462.71" width="6" height="90" rx="3" fill="#d9901a"/>
      <text x="683.25" y="482.71" class="mono" font-size="12.5" font-weight="750" fill="#a96008">◇ P03</text>
      <rect x="878.25" y="469.71" width="50" height="24" rx="5" fill="#d9901a" opacity="0.14"/>
      <text x="903.25" y="486.71" text-anchor="middle" font-size="12" font-weight="800" fill="#7a4305">병목</text>
      <text x="683.25" y="519.71" font-size="15.5" font-weight="800" fill="#7a4305"><tspan x="683.25" dy="0">60일 내 필요성 판정</tspan></text>
      <text x="683.25" y="544.71" font-size="11" font-weight="650" fill="#a96008">신고일부터 60일 이내</text>
    </g>


    <g filter="url(#card-shadow)">
      <rect x="284.75" y="701.14" width="270" height="90" rx="8" fill="#fff0f3" stroke="#ce4962" stroke-width="2.3"/>
      <rect x="284.75" y="701.14" width="6" height="90" rx="3" fill="#ce4962"/>
      <text x="299.75" y="721.14" class="mono" font-size="12.5" font-weight="750" fill="#a7263e">P04</text>
      <rect x="494.75" y="708.14" width="50" height="24" rx="5" fill="#ce4962" opacity="0.14"/>
      <text x="519.75" y="725.14" text-anchor="middle" font-size="12" font-weight="800" fill="#46111b">선행</text>
      <text x="299.75" y="758.14" font-size="15.5" font-weight="800" fill="#46111b"><tspan x="299.75" dy="0">계획단계 배려사항 검토</tspan></text>
      <text x="299.75" y="783.14" font-size="11" font-weight="650" fill="#a7263e">제3조의2</text>
    </g>


    <g filter="url(#card-shadow)">
      <rect x="284.75" y="815.14" width="270" height="90" rx="8" fill="#bc002d" stroke="#bc002d" stroke-width="2.3"/>
      <rect x="284.75" y="815.14" width="6" height="90" rx="3" fill="#bc002d"/>
      <text x="299.75" y="835.14" class="mono" font-size="12.5" font-weight="750" fill="#ffe5ea">P05</text>
      <rect x="494.75" y="822.14" width="50" height="24" rx="5" fill="#ffffff" opacity="0.18"/>
      <text x="519.75" y="839.14" text-anchor="middle" font-size="12" font-weight="800" fill="#ffffff">핵심</text>
      <text x="299.75" y="872.14" font-size="15.5" font-weight="800" fill="#ffffff"><tspan x="299.75" dy="0">배려서 작성·송부·공표</tspan></text>
      <text x="299.75" y="897.14" font-size="11" font-weight="650" fill="#ffe5ea">제3조의3·제3조의4</text>
    </g>


    <g filter="url(#card-shadow)">
      <rect x="668.25" y="758.14" width="270" height="90" rx="8" fill="#ffffff" stroke="#bfc8c6" stroke-width="2.3"/>
      <rect x="668.25" y="758.14" width="6" height="90" rx="3" fill="#bfc8c6"/>
      <text x="683.25" y="778.14" class="mono" font-size="12.5" font-weight="750" fill="#68746f">P06</text>
      <rect x="878.25" y="765.14" width="50" height="24" rx="5" fill="#bfc8c6" opacity="0.14"/>
      <text x="903.25" y="782.14" text-anchor="middle" font-size="12" font-weight="800" fill="#17231d">후속</text>
      <text x="683.25" y="815.14" font-size="15.5" font-weight="800" fill="#17231d"><tspan x="683.25" dy="0">환경대신·주무대신 의견</tspan></text>
      <text x="683.25" y="840.14" font-size="11" font-weight="650" fill="#68746f">제3조의5·제3조의6</text>
    </g>


    <g filter="url(#card-shadow)">
      <rect x="1051.75" y="758.14" width="270" height="90" rx="8" fill="#ffffff" stroke="#bfc8c6" stroke-width="2.3"/>
      <rect x="1051.75" y="758.14" width="6" height="90" rx="3" fill="#bfc8c6"/>
      <text x="1066.75" y="778.14" class="mono" font-size="12.5" font-weight="750" fill="#68746f">P07</text>
      <rect x="1261.75" y="765.14" width="50" height="24" rx="5" fill="#bfc8c6" opacity="0.14"/>
      <text x="1286.75" y="782.14" text-anchor="middle" font-size="12" font-weight="800" fill="#17231d">후속</text>
      <text x="1066.75" y="815.14" font-size="15.5" font-weight="800" fill="#17231d"><tspan x="1066.75" dy="0">관계기관·일반 의견 청취</tspan></text>
      <text x="1066.75" y="840.14" font-size="11" font-weight="650" fill="#68746f">제3조의7</text>
    </g>


    <g filter="url(#card-shadow)">
      <rect x="284.75" y="996.57" width="270" height="90" rx="8" fill="#bc002d" stroke="#bc002d" stroke-width="2.3"/>
      <rect x="284.75" y="996.57" width="6" height="90" rx="3" fill="#bc002d"/>
      <text x="299.75" y="1016.57" class="mono" font-size="12.5" font-weight="750" fill="#ffe5ea">P08</text>
      <rect x="494.75" y="1003.57" width="50" height="24" rx="5" fill="#ffffff" opacity="0.18"/>
      <text x="519.75" y="1020.57" text-anchor="middle" font-size="12" font-weight="800" fill="#ffffff">핵심</text>
      <text x="299.75" y="1053.57" font-size="15.5" font-weight="800" fill="#ffffff"><tspan x="299.75" dy="0">방법서 작성</tspan></text>
      <text x="299.75" y="1078.57" font-size="11" font-weight="650" fill="#ffe5ea">제5조</text>
    </g>


    <g filter="url(#card-shadow)">
      <rect x="1435.25" y="996.57" width="270" height="90" rx="8" fill="#bc002d" stroke="#bc002d" stroke-width="2.3"/>
      <rect x="1435.25" y="996.57" width="6" height="90" rx="3" fill="#bc002d"/>
      <text x="1450.25" y="1016.57" class="mono" font-size="12.5" font-weight="750" fill="#ffe5ea">P09</text>
      <rect x="1645.25" y="1003.57" width="50" height="24" rx="5" fill="#ffffff" opacity="0.18"/>
      <text x="1670.25" y="1020.57" text-anchor="middle" font-size="12" font-weight="800" fill="#ffffff">핵심</text>
      <text x="1450.25" y="1053.57" font-size="15.5" font-weight="800" fill="#ffffff"><tspan x="1450.25" dy="0">방법서 공고·종람·설명회</tspan></text>
      <text x="1450.25" y="1078.57" font-size="11" font-weight="650" fill="#ffe5ea">공고일부터 1개월 종람</text>
    </g>


    <g filter="url(#card-shadow)">
      <rect x="1051.75" y="996.57" width="270" height="90" rx="8" fill="#ffffff" stroke="#bfc8c6" stroke-width="2.3"/>
      <rect x="1051.75" y="996.57" width="6" height="90" rx="3" fill="#bfc8c6"/>
      <text x="1066.75" y="1016.57" class="mono" font-size="12.5" font-weight="750" fill="#68746f">P10</text>
      <rect x="1261.75" y="1003.57" width="50" height="24" rx="5" fill="#bfc8c6" opacity="0.14"/>
      <text x="1286.75" y="1020.57" text-anchor="middle" font-size="12" font-weight="800" fill="#17231d">후속</text>
      <text x="1066.75" y="1053.57" font-size="15.5" font-weight="800" fill="#17231d"><tspan x="1066.75" dy="0">의견서·지자체 의견</tspan></text>
      <text x="1066.75" y="1078.57" font-size="11" font-weight="650" fill="#68746f">종람 종료 다음 날부터 2주 경과일까지 의견 제출</text>
    </g>


    <g filter="url(#card-shadow)">
      <rect x="284.75" y="1178" width="270" height="90" rx="8" fill="#bc002d" stroke="#bc002d" stroke-width="2.3"/>
      <rect x="284.75" y="1178" width="6" height="90" rx="3" fill="#bc002d"/>
      <text x="299.75" y="1198" class="mono" font-size="12.5" font-weight="750" fill="#ffe5ea">P11</text>
      <rect x="494.75" y="1185" width="50" height="24" rx="5" fill="#ffffff" opacity="0.18"/>
      <text x="519.75" y="1202" text-anchor="middle" font-size="12" font-weight="800" fill="#ffffff">핵심</text>
      <text x="299.75" y="1235" font-size="15.5" font-weight="800" fill="#ffffff"><tspan x="299.75" dy="0">평가 항목·방법 선정</tspan></text>
      <text x="299.75" y="1260" font-size="11" font-weight="650" fill="#ffe5ea">제11조</text>
    </g>


    <g filter="url(#card-shadow)">
      <rect x="284.75" y="1292" width="270" height="90" rx="8" fill="#bc002d" stroke="#bc002d" stroke-width="2.3"/>
      <rect x="284.75" y="1292" width="6" height="90" rx="3" fill="#bc002d"/>
      <text x="299.75" y="1312" class="mono" font-size="12.5" font-weight="750" fill="#ffe5ea">P12</text>
      <rect x="494.75" y="1299" width="50" height="24" rx="5" fill="#ffffff" opacity="0.18"/>
      <text x="519.75" y="1316" text-anchor="middle" font-size="12" font-weight="800" fill="#ffffff">핵심</text>
      <text x="299.75" y="1349" font-size="15.5" font-weight="800" fill="#ffffff"><tspan x="299.75" dy="0">조사·예측·평가 실시</tspan></text>
      <text x="299.75" y="1374" font-size="11" font-weight="650" fill="#ffe5ea">제12조</text>
    </g>


    <g filter="url(#card-shadow)">
      <rect x="284.75" y="1473.43" width="270" height="90" rx="8" fill="#bc002d" stroke="#bc002d" stroke-width="2.3"/>
      <rect x="284.75" y="1473.43" width="6" height="90" rx="3" fill="#bc002d"/>
      <text x="299.75" y="1493.43" class="mono" font-size="12.5" font-weight="750" fill="#ffe5ea">P13</text>
      <rect x="494.75" y="1480.43" width="50" height="24" rx="5" fill="#ffffff" opacity="0.18"/>
      <text x="519.75" y="1497.43" text-anchor="middle" font-size="12" font-weight="800" fill="#ffffff">핵심</text>
      <text x="299.75" y="1530.43" font-size="15.5" font-weight="800" fill="#ffffff"><tspan x="299.75" dy="0">준비서 작성</tspan></text>
      <text x="299.75" y="1555.43" font-size="11" font-weight="650" fill="#ffe5ea">제14조</text>
    </g>


    <g filter="url(#card-shadow)">
      <rect x="1435.25" y="1473.43" width="270" height="90" rx="8" fill="#bc002d" stroke="#bc002d" stroke-width="2.3"/>
      <rect x="1435.25" y="1473.43" width="6" height="90" rx="3" fill="#bc002d"/>
      <text x="1450.25" y="1493.43" class="mono" font-size="12.5" font-weight="750" fill="#ffe5ea">P14</text>
      <rect x="1645.25" y="1480.43" width="50" height="24" rx="5" fill="#ffffff" opacity="0.18"/>
      <text x="1670.25" y="1497.43" text-anchor="middle" font-size="12" font-weight="800" fill="#ffffff">핵심</text>
      <text x="1450.25" y="1530.43" font-size="15.5" font-weight="800" fill="#ffffff"><tspan x="1450.25" dy="0">준비서 공고·종람·설명회</tspan></text>
      <text x="1450.25" y="1555.43" font-size="11" font-weight="650" fill="#ffe5ea">공고일부터 1개월 종람</text>
    </g>


    <g filter="url(#card-shadow)">
      <rect x="1051.75" y="1473.43" width="270" height="90" rx="8" fill="#ffffff" stroke="#bfc8c6" stroke-width="2.3"/>
      <rect x="1051.75" y="1473.43" width="6" height="90" rx="3" fill="#bfc8c6"/>
      <text x="1066.75" y="1493.43" class="mono" font-size="12.5" font-weight="750" fill="#68746f">P15</text>
      <rect x="1261.75" y="1480.43" width="50" height="24" rx="5" fill="#bfc8c6" opacity="0.14"/>
      <text x="1286.75" y="1497.43" text-anchor="middle" font-size="12" font-weight="800" fill="#17231d">후속</text>
      <text x="1066.75" y="1530.43" font-size="15.5" font-weight="800" fill="#17231d"><tspan x="1066.75" dy="0">의견·사업자 견해·지자체 의견</tspan></text>
      <text x="1066.75" y="1555.43" font-size="11" font-weight="650" fill="#68746f">종람 종료 다음 날부터 2주 경과일까지 의견 제출</text>
    </g>


    <g filter="url(#card-shadow)">
      <rect x="284.75" y="1654.86" width="270" height="90" rx="8" fill="#bc002d" stroke="#bc002d" stroke-width="2.3"/>
      <rect x="284.75" y="1654.86" width="6" height="90" rx="3" fill="#bc002d"/>
      <text x="299.75" y="1674.86" class="mono" font-size="12.5" font-weight="750" fill="#ffe5ea">P16</text>
      <rect x="494.75" y="1661.86" width="50" height="24" rx="5" fill="#ffffff" opacity="0.18"/>
      <text x="519.75" y="1678.86" text-anchor="middle" font-size="12" font-weight="800" fill="#ffffff">핵심</text>
      <text x="299.75" y="1711.86" font-size="15.5" font-weight="800" fill="#ffffff"><tspan x="299.75" dy="0">평가서 작성·사업내용 수정</tspan></text>
      <text x="299.75" y="1736.86" font-size="11" font-weight="650" fill="#ffe5ea">제21조</text>
    </g>


    <g filter="url(#card-shadow)">
      <rect x="668.25" y="1711.86" width="270" height="90" rx="8" fill="#ffffff" stroke="#bfc8c6" stroke-width="2.3"/>
      <rect x="668.25" y="1711.86" width="6" height="90" rx="3" fill="#bfc8c6"/>
      <text x="683.25" y="1731.86" class="mono" font-size="12.5" font-weight="750" fill="#68746f">P17</text>
      <rect x="878.25" y="1718.86" width="50" height="24" rx="5" fill="#bfc8c6" opacity="0.14"/>
      <text x="903.25" y="1735.86" text-anchor="middle" font-size="12" font-weight="800" fill="#17231d">후속</text>
      <text x="683.25" y="1768.86" font-size="15.5" font-weight="800" fill="#17231d"><tspan x="683.25" dy="0">면허권자 송부·환경대신 의견</tspan></text>
      <text x="683.25" y="1793.86" font-size="11" font-weight="650" fill="#68746f">제22조·제23조·제24조</text>
    </g>


    <g filter="url(#card-shadow)">
      <rect x="284.75" y="1768.86" width="270" height="90" rx="8" fill="#edf4ff" stroke="#3478db" stroke-width="2.3"/>
      <rect x="284.75" y="1768.86" width="6" height="90" rx="3" fill="#3478db"/>
      <text x="299.75" y="1788.86" class="mono" font-size="12.5" font-weight="750" fill="#316bbd">P18</text>
      <rect x="494.75" y="1775.86" width="50" height="24" rx="5" fill="#3478db" opacity="0.14"/>
      <text x="519.75" y="1792.86" text-anchor="middle" font-size="12" font-weight="800" fill="#173f7a">회귀</text>
      <text x="299.75" y="1825.86" font-size="15.5" font-weight="800" fill="#173f7a"><tspan x="299.75" dy="0">평가서 재검토·보정</tspan></text>
      <text x="299.75" y="1850.86" font-size="11" font-weight="650" fill="#316bbd">제25조·제28조·제29조</text>
    </g>


    <g filter="url(#card-shadow)">
      <rect x="1435.25" y="1711.86" width="270" height="90" rx="8" fill="#bc002d" stroke="#bc002d" stroke-width="2.3"/>
      <rect x="1435.25" y="1711.86" width="6" height="90" rx="3" fill="#bc002d"/>
      <text x="1450.25" y="1731.86" class="mono" font-size="12.5" font-weight="750" fill="#ffe5ea">P19</text>
      <rect x="1645.25" y="1718.86" width="50" height="24" rx="5" fill="#ffffff" opacity="0.18"/>
      <text x="1670.25" y="1735.86" text-anchor="middle" font-size="12" font-weight="800" fill="#ffffff">핵심</text>
      <text x="1450.25" y="1768.86" font-size="15.5" font-weight="800" fill="#ffffff"><tspan x="1450.25" dy="0">평가서 공고·종람·공표</tspan></text>
      <text x="1450.25" y="1793.86" font-size="11" font-weight="650" fill="#ffe5ea">공고일부터 1개월 종람</text>
    </g>


    <g filter="url(#card-shadow)">
      <rect x="668.25" y="1950.29" width="270" height="90" rx="8" fill="#fff8e8" stroke="#d9901a" stroke-width="2.3"/>
      <rect x="668.25" y="1950.29" width="6" height="90" rx="3" fill="#d9901a"/>
      <text x="683.25" y="1970.29" class="mono" font-size="12.5" font-weight="750" fill="#a96008">◇ P20</text>
      <rect x="878.25" y="1957.29" width="50" height="24" rx="5" fill="#d9901a" opacity="0.14"/>
      <text x="903.25" y="1974.29" text-anchor="middle" font-size="12" font-weight="800" fill="#7a4305">병목</text>
      <text x="683.25" y="2007.29" font-size="15.5" font-weight="800" fill="#7a4305"><tspan x="683.25" dy="0">착공 제한 해제·인허가 심사</tspan></text>
      <text x="683.25" y="2032.29" font-size="11" font-weight="650" fill="#a96008">제31조·제33조~제37조</text>
    </g>


    <g filter="url(#card-shadow)">
      <rect x="284.75" y="1950.29" width="270" height="90" rx="8" fill="#ffffff" stroke="#bfc8c6" stroke-width="2.3"/>
      <rect x="284.75" y="1950.29" width="6" height="90" rx="3" fill="#bfc8c6"/>
      <text x="299.75" y="1970.29" class="mono" font-size="12.5" font-weight="750" fill="#68746f">P21</text>
      <rect x="494.75" y="1957.29" width="50" height="24" rx="5" fill="#bfc8c6" opacity="0.14"/>
      <text x="519.75" y="1974.29" text-anchor="middle" font-size="12" font-weight="800" fill="#17231d">후속</text>
      <text x="299.75" y="2007.29" font-size="15.5" font-weight="800" fill="#17231d"><tspan x="299.75" dy="0">평가서대로 사업 실시</tspan></text>
      <text x="299.75" y="2032.29" font-size="11" font-weight="650" fill="#68746f">제38조</text>
    </g>


    <g filter="url(#card-shadow)">
      <rect x="284.75" y="2064.29" width="270" height="90" rx="8" fill="#ffffff" stroke="#bfc8c6" stroke-width="2.3"/>
      <rect x="284.75" y="2064.29" width="6" height="90" rx="3" fill="#bfc8c6"/>
      <text x="299.75" y="2084.29" class="mono" font-size="12.5" font-weight="750" fill="#68746f">P22</text>
      <rect x="494.75" y="2071.29" width="50" height="24" rx="5" fill="#bfc8c6" opacity="0.14"/>
      <text x="519.75" y="2088.29" text-anchor="middle" font-size="12" font-weight="800" fill="#17231d">후속</text>
      <text x="299.75" y="2121.29" font-size="15.5" font-weight="800" fill="#17231d"><tspan x="299.75" dy="0">환경보전조치 보고서 송부·공표</tspan></text>
      <text x="299.75" y="2146.29" font-size="11" font-weight="650" fill="#68746f">제38조의2·제38조의3</text>
    </g>


    <g filter="url(#card-shadow)">
      <rect x="668.25" y="2064.29" width="270" height="90" rx="8" fill="#ffffff" stroke="#bfc8c6" stroke-width="2.3"/>
      <rect x="668.25" y="2064.29" width="6" height="90" rx="3" fill="#bfc8c6"/>
      <text x="683.25" y="2084.29" class="mono" font-size="12.5" font-weight="750" fill="#68746f">P23</text>
      <rect x="878.25" y="2071.29" width="50" height="24" rx="5" fill="#bfc8c6" opacity="0.14"/>
      <text x="903.25" y="2088.29" text-anchor="middle" font-size="12" font-weight="800" fill="#17231d">후속</text>
      <text x="683.25" y="2121.29" font-size="15.5" font-weight="800" fill="#17231d"><tspan x="683.25" dy="0">보고서 의견</tspan></text>
      <text x="683.25" y="2146.29" font-size="11" font-weight="650" fill="#68746f">제38조의4·제38조의5</text>
    </g>


    <text x="38" y="2245" font-size="16" font-weight="800" fill="#18251e">읽는 법</text>
    <rect x="118" y="2219" width="17" height="17" rx="4" fill="#ce4962"/><text x="144" y="2233" font-size="14.5" fill="#526159">선행</text>
    <rect x="216" y="2219" width="17" height="17" rx="4" fill="#bc002d"/><text x="242" y="2233" font-size="14.5" fill="#526159">핵심</text>
    <rect x="314" y="2219" width="17" height="17" rx="4" fill="#d9901a"/><text x="340" y="2233" font-size="14.5" fill="#526159">병목</text>
    <rect x="412" y="2219" width="17" height="17" rx="4" fill="#3478db"/><text x="438" y="2233" font-size="14.5" fill="#526159">회귀</text>
    <line x1="512" y1="2237" x2="564" y2="2237" stroke="#53675d" stroke-width="4" marker-end="url(#arrow-sequence)"/>
    <text x="584" y="2243" font-size="15" fill="#526159">절차 순서</text>
    <line x1="724" y1="2237" x2="776" y2="2237" stroke="#bc002d" stroke-width="4" stroke-dasharray="10 8" marker-end="url(#arrow-message)"/>
    <text x="796" y="2243" font-size="15" fill="#526159">정보 전달</text>
    <line x1="936" y1="2237" x2="988" y2="2237" stroke="#3478db" stroke-width="4" stroke-dasharray="10 8" marker-end="url(#arrow-loop)"/>
    <text x="1008" y="2243" font-size="15" fill="#526159">보완 회귀</text>
    <text x="38" y="2291" font-size="15.5" font-weight="650" fill="#56655d">단계는 위→아래, 행위자 묶음은 좌→우로 읽습니다.</text>
    <text x="38" y="2321" font-size="14.5" fill="#68776f">원래 6개 일본 제도 행위자 레인을 4개 레이아웃 묶음으로 배치했으며, 23개 업무와 26개 연결 관계는 유지했습니다.</text>
    <text x="38" y="2361" font-size="13.5" fill="#7b8881">출처: 일본 e-Gov 법령검색·세계법제정보센터 기반 파일럿 · 번역본은 용어 확인 보조자료입니다.</text>
    <text x="1762" y="2361" text-anchor="end" font-size="17" font-weight="750" fill="#bc002d">korea100 comparative · Japan</text>

</svg>