<svg xmlns="http://www.w3.org/2000/svg" width="1800" height="2400" viewBox="0 0 1800 2400">
<defs>
      <filter id="card-shadow" x="-20%" y="-25%" width="140%" height="160%">
        <feDropShadow dx="0" dy="3" stdDeviation="4" flood-color="#2b1117" flood-opacity="0.10"/>
      </filter>
      <marker id="arrow-sequence" markerWidth="17" markerHeight="13" refX="15" refY="6.5" orient="auto" markerUnits="userSpaceOnUse"><path d="M1,1 L16,6.5 L1,12 Z" fill="#53675d" stroke="#ffffff" stroke-width="1.3" stroke-linejoin="round"/></marker>
      <marker id="arrow-message" markerWidth="17" markerHeight="13" refX="15" refY="6.5" orient="auto" markerUnits="userSpaceOnUse"><path d="M1,1 L16,6.5 L1,12 Z" fill="#da251d" stroke="#ffffff" stroke-width="1.3" stroke-linejoin="round"/></marker>
      <marker id="arrow-loop" markerWidth="17" markerHeight="13" refX="15" refY="6.5" orient="auto" markerUnits="userSpaceOnUse"><path d="M1,1 L16,6.5 L1,12 Z" fill="#3478db" stroke="#ffffff" stroke-width="1.3" stroke-linejoin="round"/></marker>
      <style>
        text { font-family: "Apple SD Gothic Neo", "Noto Sans CJK KR", "Noto Sans KR", sans-serif; }
        .mono { font-family: "SFMono-Regular", "Menlo", monospace; }
      </style>
    </defs>
<rect width="1800" height="2400" fill="#ffffff"/>
<rect x="0" y="0" width="1800" height="240" fill="#1a0908"/>
<rect x="0" y="0" width="1800" height="9" fill="#da251d"/>

    <text x="40" y="45" font-size="19" font-weight="800" fill="#ffffff">대한민국 제도 100</text>
    <text x="252" y="45" font-size="15" font-weight="650" fill="#ccb1ae">비교법 업무구조도 · 베트남</text>
    <text x="1760" y="45" text-anchor="end" font-size="15" fill="#ccb1ae">기준일 2026-07-14</text>
    <text x="40" y="82" font-size="14" font-weight="750" fill="#ccb1ae">NO VN-01</text>
    <text x="122" y="82" font-size="14" font-weight="750" fill="#ffe477">해외비교·무역세관</text>
    <text x="386" y="82" font-size="14" font-weight="650" fill="#f2d8d5">Luật Hải quan 54/2014/QH13</text>
    <text x="40" y="132" font-size="48" font-weight="850" fill="#ffffff">베트남 상업 수입통관</text>
    <text x="40" y="174" font-size="19" font-weight="520" fill="#f2d8d5">VNACCS 전자신고와 Green·Yellow·Red 위험분류를 중심으로 베트남 수입화물이 통관되는 절차</text>
    <rect x="40" y="192" width="296" height="32" rx="5" fill="#360d0a" stroke="#7f1712" stroke-width="1"/>
    <circle cx="58" cy="208" r="5" fill="#ffe477"/>
    <text x="72" y="214" font-size="14" font-weight="750" fill="#ffe477">Vietnam Trade Portal 근거</text>
    <g transform="translate(1452 80)">
      <rect x="0" y="0" width="238" height="96" rx="8" fill="#da251d" stroke="#f3c2bf" stroke-width="1.5"/>
      <path d="M 52,21 L 58.35,39.26 L 77.68,39.66 L 62.27,51.34 L 67.87,69.84 L 52,58.8 L 36.13,69.84 L 41.73,51.34 L 26.32,39.66 L 45.65,39.26 Z" fill="#ffdf00"/>
      <text x="96" y="40" font-size="18" font-weight="850" fill="#ffffff">VIETNAM</text>
      <text x="96" y="66" font-size="13.5" font-weight="700" fill="#ffe9e6">상업 수입통관</text>
    </g>
    <text x="1760" y="214" text-anchor="end" font-size="16" font-weight="750" fill="#f2d8d5">노드 21 · 레인 6 · 게이트 8</text>

<rect x="38" y="260" width="1724" height="1940" rx="10" fill="#ffffff" stroke="#c8d1cf" stroke-width="2"/>
<rect x="38" y="260" width="190" height="100" rx="10" fill="#fff7e1"/>
<text x="58" y="299" font-size="17" font-weight="800" fill="#17231d">단계 ↓</text>
<text x="58" y="332" font-size="15" font-weight="650" fill="#68776f">행위자 묶음 →</text>
<rect x="38" y="360" width="1724" height="256.5" fill="#fbfcfb"/>
<rect x="38" y="360" width="190" height="256.5" fill="#f0f3f2"/>
<text x="58" y="392" class="mono" font-size="16" font-weight="800" fill="#53645b">V0</text>
<text x="58" y="425" font-size="19" font-weight="800" fill="#53645b"><tspan x="58" dy="0">품목·서류 준비</tspan></text>
<rect x="38" y="616.5" width="1724" height="256.5" fill="#fff8f5"/>
<rect x="38" y="616.5" width="190" height="256.5" fill="#da251d"/>
<text x="58" y="648.5" class="mono" font-size="16" font-weight="800" fill="#ffffff">V1</text>
<text x="58" y="681.5" font-size="19" font-weight="800" fill="#ffffff"><tspan x="58" dy="0">사전신고</tspan></text>
<rect x="38" y="873" width="1724" height="148.5" fill="#fff8f5"/>
<rect x="38" y="873" width="190" height="148.5" fill="#da251d"/>
<text x="58" y="905" class="mono" font-size="16" font-weight="800" fill="#ffffff">V2</text>
<text x="58" y="938" font-size="19" font-weight="800" fill="#ffffff"><tspan x="58" dy="0">공식신고·등록</tspan></text>
<rect x="38" y="1021.5" width="1724" height="476.5" fill="#fff8f5"/>
<rect x="38" y="1021.5" width="190" height="476.5" fill="#da251d"/>
<text x="58" y="1053.5" class="mono" font-size="16" font-weight="800" fill="#ffffff">V3</text>
<text x="58" y="1086.5" font-size="19" font-weight="800" fill="#ffffff"><tspan x="58" dy="0">위험분류</tspan></text>
<rect x="38" y="1498" width="1724" height="148.5" fill="#fff8f5"/>
<rect x="38" y="1498" width="190" height="148.5" fill="#da251d"/>
<text x="58" y="1530" class="mono" font-size="16" font-weight="800" fill="#ffffff">V4</text>
<text x="58" y="1563" font-size="19" font-weight="800" fill="#ffffff"><tspan x="58" dy="0">서류·실물검사</tspan></text>
<rect x="38" y="1646.5" width="1724" height="148.5" fill="#fff8f5"/>
<rect x="38" y="1646.5" width="190" height="148.5" fill="#da251d"/>
<text x="58" y="1678.5" class="mono" font-size="16" font-weight="800" fill="#ffffff">V5</text>
<text x="58" y="1711.5" font-size="19" font-weight="800" fill="#ffffff"><tspan x="58" dy="0">세금·수수료</tspan></text>
<rect x="38" y="1795" width="1724" height="148.5" fill="#fff8f5"/>
<rect x="38" y="1795" width="190" height="148.5" fill="#da251d"/>
<text x="58" y="1827" class="mono" font-size="16" font-weight="800" fill="#ffffff">V6</text>
<text x="58" y="1860" font-size="19" font-weight="800" fill="#ffffff"><tspan x="58" dy="0">통관·반출</tspan></text>
<rect x="38" y="1943.5" width="1724" height="256.5" fill="#f6f8f7"/>
<rect x="38" y="1943.5" width="190" height="256.5" fill="#f0f3f2"/>
<text x="58" y="1975.5" class="mono" font-size="16" font-weight="800" fill="#53645b">V7</text>
<text x="58" y="2008.5" font-size="19" font-weight="800" fill="#53645b"><tspan x="58" dy="0">사후보관·정정</tspan></text>
<rect x="228" y="260" width="383.5" height="100" fill="#fffdf7"/>
<rect x="228" y="260" width="383.5" height="7" fill="#da251d"/>
<text x="248" y="299" font-size="20" font-weight="800" fill="#17231d">수입자·대리인</text>
<text x="248" y="329" font-size="13.5" font-weight="600" fill="#68776f"><tspan x="248" dy="0">수입자·통관대리인</tspan></text>
<rect x="611.5" y="260" width="383.5" height="100" fill="#fffdf7"/>
<rect x="611.5" y="260" width="383.5" height="7" fill="#2563eb"/>
<text x="631.5" y="299" font-size="20" font-weight="800" fill="#17231d">VNACCS·세관</text>
<text x="631.5" y="329" font-size="13.5" font-weight="600" fill="#68776f"><tspan x="631.5" dy="0">VNACCS·세관시스템 · 세관공무원</tspan></text>
<rect x="995" y="260" width="383.5" height="100" fill="#fffdf7"/>
<rect x="995" y="260" width="383.5" height="7" fill="#facc15"/>
<text x="1015" y="299" font-size="20" font-weight="800" fill="#17231d">허가·전문검사</text>
<text x="1015" y="329" font-size="13.5" font-weight="600" fill="#68776f"><tspan x="1015" dy="0">전문검사·허가기관</tspan></text>
<rect x="1378.5" y="260" width="383.5" height="100" fill="#fffdf7"/>
<rect x="1378.5" y="260" width="383.5" height="7" fill="#059669"/>
<text x="1398.5" y="299" font-size="20" font-weight="800" fill="#17231d">납부·반출</text>
<text x="1398.5" y="329" font-size="13.5" font-weight="600" fill="#68776f"><tspan x="1398.5" dy="0">보세구역·운송인 · 세금·수수료</tspan></text>
<line x1="228" y1="260" x2="228" y2="2200" stroke="#d5ddda" stroke-width="1.5"/>
<line x1="611.5" y1="260" x2="611.5" y2="2200" stroke="#d5ddda" stroke-width="1.5"/>
<line x1="995" y1="260" x2="995" y2="2200" stroke="#d5ddda" stroke-width="1.5"/>
<line x1="1378.5" y1="260" x2="1378.5" y2="2200" stroke="#d5ddda" stroke-width="1.5"/>
<line x1="1762" y1="260" x2="1762" y2="2200" stroke="#d5ddda" stroke-width="1.5"/>
<line x1="38" y1="360" x2="1762" y2="360" stroke="#c8d1cf" stroke-width="2"/>
<line x1="38" y1="360" x2="1762" y2="360" stroke="#cbd5d1" stroke-width="1.5"/>
<line x1="38" y1="616.5" x2="1762" y2="616.5" stroke="#cbd5d1" stroke-width="1.5"/>
<line x1="38" y1="873" x2="1762" y2="873" stroke="#cbd5d1" stroke-width="1.5"/>
<line x1="38" y1="1021.5" x2="1762" y2="1021.5" stroke="#cbd5d1" stroke-width="1.5"/>
<line x1="38" y1="1498" x2="1762" y2="1498" stroke="#cbd5d1" stroke-width="1.5"/>
<line x1="38" y1="1646.5" x2="1762" y2="1646.5" stroke="#cbd5d1" stroke-width="1.5"/>
<line x1="38" y1="1795" x2="1762" y2="1795" stroke="#cbd5d1" stroke-width="1.5"/>
<line x1="38" y1="1943.5" x2="1762" y2="1943.5" stroke="#cbd5d1" stroke-width="1.5"/>
<line x1="38" y1="2200" x2="1762" y2="2200" stroke="#c8d1cf" stroke-width="2"/>
<path d="M 419.75 478.25 V 490.25" fill="none" stroke="#ffffff" stroke-width="7.4"  stroke-linecap="round" stroke-linejoin="round" opacity="0.94"/>
<path d="M 419.75 478.25 V 490.25" fill="none" stroke="#53675d" stroke-width="3.4"  marker-end="url(#arrow-sequence)" stroke-linecap="round" stroke-linejoin="round" opacity="0.96"/>
<rect x="562.75" y="473.25" width="80" height="30" rx="6" fill="#ffffff" stroke="#53675d" stroke-width="1.4"/>
<text x="602.75" y="493.25" text-anchor="middle" font-size="13.5" font-weight="750" fill="#53675d">요건 확인</text>
<path d="M 554.75 543.25 H 1023.75 V 488.25 H 1043.75" fill="none" stroke="#ffffff" stroke-width="7.4" stroke-dasharray="11 8" stroke-linecap="round" stroke-linejoin="round" opacity="0.94"/>
<path d="M 554.75 543.25 H 1023.75 V 488.25 H 1043.75" fill="none" stroke="#da251d" stroke-width="3.4" stroke-dasharray="11 8" marker-end="url(#arrow-message)" stroke-linecap="round" stroke-linejoin="round" opacity="0.96"/>
<rect x="750.2" y="482.75" width="106.11" height="30" rx="6" fill="#ffffff" stroke="#da251d" stroke-width="1.4"/>
<text x="803.25" y="502.75" text-anchor="middle" font-size="13.5" font-weight="750" fill="#da251d">허가·검사 확인</text>
<path d="M 1051.75 488.25 V 592.5 H 407.75 V 636.75" fill="none" stroke="#ffffff" stroke-width="7.4"  stroke-linecap="round" stroke-linejoin="round" opacity="0.94"/>
<path d="M 1051.75 488.25 V 592.5 H 407.75 V 636.75" fill="none" stroke="#53675d" stroke-width="3.4"  marker-end="url(#arrow-sequence)" stroke-linecap="round" stroke-linejoin="round" opacity="0.96"/>
<rect x="763.25" y="559.5" width="80" height="30" rx="6" fill="#ffffff" stroke="#53675d" stroke-width="1.4"/>
<text x="803.25" y="579.5" text-anchor="middle" font-size="13.5" font-weight="750" fill="#53675d">신고 준비</text>
<path d="M 419.75 734.75 V 746.75" fill="none" stroke="#ffffff" stroke-width="8" stroke-dasharray="10 8" stroke-linecap="round" stroke-linejoin="round" opacity="0.94"/>
<path d="M 419.75 734.75 V 746.75" fill="none" stroke="#3478db" stroke-width="4" stroke-dasharray="10 8" marker-end="url(#arrow-loop)" stroke-linecap="round" stroke-linejoin="round" opacity="0.96"/>
<rect x="562.75" y="729.75" width="80" height="30" rx="6" fill="#ffffff" stroke="#3478db" stroke-width="1.4"/>
<text x="602.75" y="749.75" text-anchor="middle" font-size="13.5" font-weight="750" fill="#3478db">변경 시</text>
<path d="M 395.75 734.75 V 894.25" fill="none" stroke="#ffffff" stroke-width="7.4"  stroke-linecap="round" stroke-linejoin="round" opacity="0.94"/>
<path d="M 395.75 734.75 V 894.25" fill="none" stroke="#53675d" stroke-width="3.4"  marker-end="url(#arrow-sequence)" stroke-linecap="round" stroke-linejoin="round" opacity="0.96"/>
<rect x="564.75" y="803.5" width="80" height="30" rx="6" fill="#ffffff" stroke="#53675d" stroke-width="1.4"/>
<text x="604.75" y="823.5" text-anchor="middle" font-size="13.5" font-weight="750" fill="#53675d">확정</text>
<path d="M 407.75 844.75 V 894.25" fill="none" stroke="#ffffff" stroke-width="7.4"  stroke-linecap="round" stroke-linejoin="round" opacity="0.94"/>
<path d="M 407.75 844.75 V 894.25" fill="none" stroke="#53675d" stroke-width="3.4"  marker-end="url(#arrow-sequence)" stroke-linecap="round" stroke-linejoin="round" opacity="0.96"/>
<rect x="564.75" y="858.5" width="80" height="30" rx="6" fill="#ffffff" stroke="#53675d" stroke-width="1.4"/>
<text x="604.75" y="878.5" text-anchor="middle" font-size="13.5" font-weight="750" fill="#53675d">보완 후</text>
<path d="M 554.75 947.25 H 640.25 V 947.25 H 660.25" fill="none" stroke="#ffffff" stroke-width="7.4" stroke-dasharray="11 8" stroke-linecap="round" stroke-linejoin="round" opacity="0.94"/>
<path d="M 554.75 947.25 H 640.25 V 947.25 H 660.25" fill="none" stroke="#da251d" stroke-width="3.4" stroke-dasharray="11 8" marker-end="url(#arrow-message)" stroke-linecap="round" stroke-linejoin="round" opacity="0.96"/>
<rect x="571.5" y="914.25" width="80" height="30" rx="6" fill="#ffffff" stroke="#da251d" stroke-width="1.4"/>
<text x="611.5" y="934.25" text-anchor="middle" font-size="13.5" font-weight="750" fill="#da251d">전자신고</text>
<path d="M 815.25 992.25 V 1041.75" fill="none" stroke="#ffffff" stroke-width="7.4"  stroke-linecap="round" stroke-linejoin="round" opacity="0.94"/>
<path d="M 815.25 992.25 V 1041.75" fill="none" stroke="#53675d" stroke-width="3.4"  marker-end="url(#arrow-sequence)" stroke-linecap="round" stroke-linejoin="round" opacity="0.96"/>
<rect x="948.25" y="1006" width="80" height="30" rx="6" fill="#ffffff" stroke="#53675d" stroke-width="1.4"/>
<text x="988.25" y="1026" text-anchor="middle" font-size="13.5" font-weight="750" fill="#53675d">등록</text>
<path d="M 803.25 1139.75 V 1151.75" fill="none" stroke="#ffffff" stroke-width="7.4"  stroke-linecap="round" stroke-linejoin="round" opacity="0.94"/>
<path d="M 803.25 1139.75 V 1151.75" fill="none" stroke="#53675d" stroke-width="3.4"  marker-end="url(#arrow-sequence)" stroke-linecap="round" stroke-linejoin="round" opacity="0.96"/>
<rect x="946.25" y="1134.75" width="80" height="30" rx="6" fill="#ffffff" stroke="#53675d" stroke-width="1.4"/>
<text x="986.25" y="1154.75" text-anchor="middle" font-size="13.5" font-weight="750" fill="#53675d">Green</text>
<path d="M 803.25 1139.75 V 1261.75" fill="none" stroke="#ffffff" stroke-width="7.4"  stroke-linecap="round" stroke-linejoin="round" opacity="0.94"/>
<path d="M 803.25 1139.75 V 1261.75" fill="none" stroke="#53675d" stroke-width="3.4"  marker-end="url(#arrow-sequence)" stroke-linecap="round" stroke-linejoin="round" opacity="0.96"/>
<rect x="946.25" y="1189.75" width="80" height="30" rx="6" fill="#ffffff" stroke="#53675d" stroke-width="1.4"/>
<text x="986.25" y="1209.75" text-anchor="middle" font-size="13.5" font-weight="750" fill="#53675d">Yellow</text>
<path d="M 803.25 1139.75 V 1371.75" fill="none" stroke="#ffffff" stroke-width="7.4"  stroke-linecap="round" stroke-linejoin="round" opacity="0.94"/>
<path d="M 803.25 1139.75 V 1371.75" fill="none" stroke="#53675d" stroke-width="3.4"  marker-end="url(#arrow-sequence)" stroke-linecap="round" stroke-linejoin="round" opacity="0.96"/>
<rect x="946.25" y="1244.75" width="80" height="30" rx="6" fill="#ffffff" stroke="#53675d" stroke-width="1.4"/>
<text x="986.25" y="1264.75" text-anchor="middle" font-size="13.5" font-weight="750" fill="#53675d">Red</text>
<path d="M 668.25 1314.75 V 1486 H 419.75 V 1519.25" fill="none" stroke="#ffffff" stroke-width="7.4" stroke-dasharray="11 8" stroke-linecap="round" stroke-linejoin="round" opacity="0.94"/>
<path d="M 668.25 1314.75 V 1486 H 419.75 V 1519.25" fill="none" stroke="#da251d" stroke-width="3.4" stroke-dasharray="11 8" marker-end="url(#arrow-message)" stroke-linecap="round" stroke-linejoin="round" opacity="0.96"/>
<rect x="571.5" y="1453" width="80" height="30" rx="6" fill="#ffffff" stroke="#da251d" stroke-width="1.4"/>
<text x="611.5" y="1473" text-anchor="middle" font-size="13.5" font-weight="750" fill="#da251d">서류 요구</text>
<path d="M 668.25 1424.75 V 1474 H 407.75 V 1519.25" fill="none" stroke="#ffffff" stroke-width="7.4" stroke-dasharray="11 8" stroke-linecap="round" stroke-linejoin="round" opacity="0.94"/>
<path d="M 668.25 1424.75 V 1474 H 407.75 V 1519.25" fill="none" stroke="#da251d" stroke-width="3.4" stroke-dasharray="11 8" marker-end="url(#arrow-message)" stroke-linecap="round" stroke-linejoin="round" opacity="0.96"/>
<rect x="571.5" y="1441" width="80" height="30" rx="6" fill="#ffffff" stroke="#da251d" stroke-width="1.4"/>
<text x="611.5" y="1461" text-anchor="middle" font-size="13.5" font-weight="750" fill="#da251d">서류 제출</text>
<path d="M 554.75 1580.65 H 616.25 V 1566.25 H 660.25" fill="none" stroke="#ffffff" stroke-width="7.4"  stroke-linecap="round" stroke-linejoin="round" opacity="0.94"/>
<path d="M 554.75 1580.65 H 616.25 V 1566.25 H 660.25" fill="none" stroke="#53675d" stroke-width="3.4"  marker-end="url(#arrow-sequence)" stroke-linecap="round" stroke-linejoin="round" opacity="0.96"/>
<rect x="571.5" y="1540.45" width="80" height="30" rx="6" fill="#ffffff" stroke="#53675d" stroke-width="1.4"/>
<text x="611.5" y="1560.45" text-anchor="middle" font-size="13.5" font-weight="750" fill="#53675d">서류검사</text>
<path d="M 938.25 1424.75 V 1462 H 1594.25 V 1519.25" fill="none" stroke="#ffffff" stroke-width="7.4" stroke-dasharray="11 8" stroke-linecap="round" stroke-linejoin="round" opacity="0.94"/>
<path d="M 938.25 1424.75 V 1462 H 1594.25 V 1519.25" fill="none" stroke="#da251d" stroke-width="3.4" stroke-dasharray="11 8" marker-end="url(#arrow-message)" stroke-linecap="round" stroke-linejoin="round" opacity="0.96"/>
<rect x="1146.75" y="1429" width="80" height="30" rx="6" fill="#ffffff" stroke="#da251d" stroke-width="1.4"/>
<text x="1186.75" y="1449" text-anchor="middle" font-size="13.5" font-weight="750" fill="#da251d">화물 제시</text>
<path d="M 1174.75 533.25 V 1519.25" fill="none" stroke="#ffffff" stroke-width="7.4" stroke-dasharray="11 8" stroke-linecap="round" stroke-linejoin="round" opacity="0.94"/>
<path d="M 1174.75 533.25 V 1519.25" fill="none" stroke="#da251d" stroke-width="3.4" stroke-dasharray="11 8" marker-end="url(#arrow-message)" stroke-linecap="round" stroke-linejoin="round" opacity="0.96"/>
<rect x="1331.75" y="1015.25" width="80" height="30" rx="6" fill="#ffffff" stroke="#da251d" stroke-width="1.4"/>
<text x="1371.75" y="1035.25" text-anchor="middle" font-size="13.5" font-weight="750" fill="#da251d">필요 시</text>
<path d="M 1435.25 1572.25 H 966.25 V 1572.25 H 946.25" fill="none" stroke="#ffffff" stroke-width="7.4"  stroke-linecap="round" stroke-linejoin="round" opacity="0.94"/>
<path d="M 1435.25 1572.25 H 966.25 V 1572.25 H 946.25" fill="none" stroke="#53675d" stroke-width="3.4"  marker-end="url(#arrow-sequence)" stroke-linecap="round" stroke-linejoin="round" opacity="0.96"/>
<rect x="1146.75" y="1539.25" width="80" height="30" rx="6" fill="#ffffff" stroke="#53675d" stroke-width="1.4"/>
<text x="1186.75" y="1559.25" text-anchor="middle" font-size="13.5" font-weight="750" fill="#53675d">검사결과</text>
<path d="M 1051.75 1576.45 H 978.25 V 1569.25 H 946.25" fill="none" stroke="#ffffff" stroke-width="7.4" stroke-dasharray="11 8" stroke-linecap="round" stroke-linejoin="round" opacity="0.94"/>
<path d="M 1051.75 1576.45 H 978.25 V 1569.25 H 946.25" fill="none" stroke="#da251d" stroke-width="3.4" stroke-dasharray="11 8" marker-end="url(#arrow-message)" stroke-linecap="round" stroke-linejoin="round" opacity="0.96"/>
<rect x="955" y="1539.85" width="80" height="30" rx="6" fill="#ffffff" stroke="#da251d" stroke-width="1.4"/>
<text x="995" y="1559.85" text-anchor="middle" font-size="13.5" font-weight="750" fill="#da251d">결과 반영</text>
<path d="M 938.25 1204.75 V 1462 H 1546.25 V 1667.75" fill="none" stroke="#ffffff" stroke-width="7.4"  stroke-linecap="round" stroke-linejoin="round" opacity="0.94"/>
<path d="M 938.25 1204.75 V 1462 H 1546.25 V 1667.75" fill="none" stroke="#53675d" stroke-width="3.4"  marker-end="url(#arrow-sequence)" stroke-linecap="round" stroke-linejoin="round" opacity="0.96"/>
<rect x="1146.75" y="1429" width="80" height="30" rx="6" fill="#ffffff" stroke="#53675d" stroke-width="1.4"/>
<text x="1186.75" y="1449" text-anchor="middle" font-size="13.5" font-weight="750" fill="#53675d">납부 단계</text>
<path d="M 938.25 1572.25 V 1610.5 H 1594.25 V 1667.75" fill="none" stroke="#ffffff" stroke-width="7.4"  stroke-linecap="round" stroke-linejoin="round" opacity="0.94"/>
<path d="M 938.25 1572.25 V 1610.5 H 1594.25 V 1667.75" fill="none" stroke="#53675d" stroke-width="3.4"  marker-end="url(#arrow-sequence)" stroke-linecap="round" stroke-linejoin="round" opacity="0.96"/>
<rect x="1146.75" y="1577.5" width="80" height="30" rx="6" fill="#ffffff" stroke="#53675d" stroke-width="1.4"/>
<text x="1186.75" y="1597.5" text-anchor="middle" font-size="13.5" font-weight="750" fill="#53675d">검사 통과</text>
<path d="M 1435.25 1716.55 H 582.75 V 1723.75 H 562.75" fill="none" stroke="#ffffff" stroke-width="7.4" stroke-dasharray="11 8" stroke-linecap="round" stroke-linejoin="round" opacity="0.94"/>
<path d="M 1435.25 1716.55 H 582.75 V 1723.75 H 562.75" fill="none" stroke="#da251d" stroke-width="3.4" stroke-dasharray="11 8" marker-end="url(#arrow-message)" stroke-linecap="round" stroke-linejoin="round" opacity="0.96"/>
<rect x="955" y="1687.15" width="80" height="30" rx="6" fill="#ffffff" stroke="#da251d" stroke-width="1.4"/>
<text x="995" y="1707.15" text-anchor="middle" font-size="13.5" font-weight="750" fill="#da251d">납부액</text>
<path d="M 554.75 1720.75 V 1783 H 803.25 V 1816.25" fill="none" stroke="#ffffff" stroke-width="7.4"  stroke-linecap="round" stroke-linejoin="round" opacity="0.94"/>
<path d="M 554.75 1720.75 V 1783 H 803.25 V 1816.25" fill="none" stroke="#53675d" stroke-width="3.4"  marker-end="url(#arrow-sequence)" stroke-linecap="round" stroke-linejoin="round" opacity="0.96"/>
<rect x="571.5" y="1750" width="80" height="30" rx="6" fill="#ffffff" stroke="#53675d" stroke-width="1.4"/>
<text x="611.5" y="1770" text-anchor="middle" font-size="13.5" font-weight="750" fill="#53675d">납부·보증</text>
<path d="M 938.25 1873.45 H 1395.25 V 1866.25 H 1427.25" fill="none" stroke="#ffffff" stroke-width="7.4"  stroke-linecap="round" stroke-linejoin="round" opacity="0.94"/>
<path d="M 938.25 1873.45 H 1395.25 V 1866.25 H 1427.25" fill="none" stroke="#53675d" stroke-width="3.4"  marker-end="url(#arrow-sequence)" stroke-linecap="round" stroke-linejoin="round" opacity="0.96"/>
<rect x="1146.75" y="1836.85" width="80" height="30" rx="6" fill="#ffffff" stroke="#53675d" stroke-width="1.4"/>
<text x="1186.75" y="1856.85" text-anchor="middle" font-size="13.5" font-weight="750" fill="#53675d">통관</text>
<path d="M 1435.25 1869.25 V 1907.5 H 395.75 V 1963.75" fill="none" stroke="#ffffff" stroke-width="7.4"  stroke-linecap="round" stroke-linejoin="round" opacity="0.94"/>
<path d="M 1435.25 1869.25 V 1907.5 H 395.75 V 1963.75" fill="none" stroke="#53675d" stroke-width="3.4"  marker-end="url(#arrow-sequence)" stroke-linecap="round" stroke-linejoin="round" opacity="0.96"/>
<rect x="955" y="1874.5" width="80" height="30" rx="6" fill="#ffffff" stroke="#53675d" stroke-width="1.4"/>
<text x="995" y="1894.5" text-anchor="middle" font-size="13.5" font-weight="750" fill="#53675d">사후관리</text>
<path d="M 419.75 2061.75 V 2073.75" fill="none" stroke="#ffffff" stroke-width="8" stroke-dasharray="10 8" stroke-linecap="round" stroke-linejoin="round" opacity="0.94"/>
<path d="M 419.75 2061.75 V 2073.75" fill="none" stroke="#3478db" stroke-width="4" stroke-dasharray="10 8" marker-end="url(#arrow-loop)" stroke-linecap="round" stroke-linejoin="round" opacity="0.96"/>
<rect x="562.75" y="2056.75" width="80" height="30" rx="6" fill="#ffffff" stroke="#3478db" stroke-width="1.4"/>
<text x="602.75" y="2076.75" text-anchor="middle" font-size="13.5" font-weight="750" fill="#3478db">오류·검사</text>

    <g filter="url(#card-shadow)">
      <rect x="284.75" y="388.25" width="270" height="90" rx="8" fill="#fff8d9" stroke="#e3b505" stroke-width="2.3"/>
      <rect x="284.75" y="388.25" width="6" height="90" rx="3" fill="#e3b505"/>
      <text x="299.75" y="408.25" class="mono" font-size="12.5" font-weight="750" fill="#9f7900">◇ P01</text>
      <rect x="494.75" y="395.25" width="50" height="24" rx="5" fill="#e3b505" opacity="0.14"/>
      <text x="519.75" y="412.25" text-anchor="middle" font-size="12" font-weight="800" fill="#49370a">선행</text>
      <text x="299.75" y="445.25" font-size="15.5" font-weight="800" fill="#49370a"><tspan x="299.75" dy="0">HS·수입요건 확인</tspan></text>
      <text x="299.75" y="470.25" font-size="11" font-weight="650" fill="#9f7900">Article 4, Article 18</text>
    </g>


    <g filter="url(#card-shadow)">
      <rect x="284.75" y="498.25" width="270" height="90" rx="8" fill="#fff8d9" stroke="#e3b505" stroke-width="2.3"/>
      <rect x="284.75" y="498.25" width="6" height="90" rx="3" fill="#e3b505"/>
      <text x="299.75" y="518.25" class="mono" font-size="12.5" font-weight="750" fill="#9f7900">P02</text>
      <rect x="494.75" y="505.25" width="50" height="24" rx="5" fill="#e3b505" opacity="0.14"/>
      <text x="519.75" y="522.25" text-anchor="middle" font-size="12" font-weight="800" fill="#49370a">선행</text>
      <text x="299.75" y="555.25" font-size="15.5" font-weight="800" fill="#49370a"><tspan x="299.75" dy="0">기본 통관서류 준비</tspan></text>
      <text x="299.75" y="580.25" font-size="11" font-weight="650" fill="#9f7900">Article 24</text>
    </g>


    <g filter="url(#card-shadow)">
      <rect x="1051.75" y="443.25" width="270" height="90" rx="8" fill="#fff8e8" stroke="#d9901a" stroke-width="2.3"/>
      <rect x="1051.75" y="443.25" width="6" height="90" rx="3" fill="#d9901a"/>
      <text x="1066.75" y="463.25" class="mono" font-size="12.5" font-weight="750" fill="#a96008">◇ P03</text>
      <rect x="1261.75" y="450.25" width="50" height="24" rx="5" fill="#d9901a" opacity="0.14"/>
      <text x="1286.75" y="467.25" text-anchor="middle" font-size="12" font-weight="800" fill="#7a4305">병목</text>
      <text x="1066.75" y="500.25" font-size="15.5" font-weight="800" fill="#7a4305"><tspan x="1066.75" dy="0">허가·전문검사 해당성</tspan></text>
      <text x="1066.75" y="525.25" font-size="11" font-weight="650" fill="#a96008">Article 24, Article 32</text>
    </g>


    <g filter="url(#card-shadow)">
      <rect x="284.75" y="644.75" width="270" height="90" rx="8" fill="#da251d" stroke="#da251d" stroke-width="2.3"/>
      <rect x="284.75" y="644.75" width="6" height="90" rx="3" fill="#da251d"/>
      <text x="299.75" y="664.75" class="mono" font-size="12.5" font-weight="750" fill="#ffe2df">P04</text>
      <rect x="494.75" y="651.75" width="50" height="24" rx="5" fill="#ffffff" opacity="0.18"/>
      <text x="519.75" y="668.75" text-anchor="middle" font-size="12" font-weight="800" fill="#ffffff">핵심</text>
      <text x="299.75" y="701.75" font-size="15.5" font-weight="800" fill="#ffffff"><tspan x="299.75" dy="0">IDA 사전신고 입력</tspan></text>
      <text x="299.75" y="726.75" font-size="11" font-weight="650" fill="#ffe2df">사전정보 7일 수정 가능</text>
    </g>


    <g filter="url(#card-shadow)">
      <rect x="284.75" y="754.75" width="270" height="90" rx="8" fill="#edf4ff" stroke="#3478db" stroke-width="2.3"/>
      <rect x="284.75" y="754.75" width="6" height="90" rx="3" fill="#3478db"/>
      <text x="299.75" y="774.75" class="mono" font-size="12.5" font-weight="750" fill="#316bbd">P05</text>
      <rect x="494.75" y="761.75" width="50" height="24" rx="5" fill="#3478db" opacity="0.14"/>
      <text x="519.75" y="778.75" text-anchor="middle" font-size="12" font-weight="800" fill="#173f7a">회귀</text>
      <text x="299.75" y="811.75" font-size="15.5" font-weight="800" fill="#173f7a"><tspan x="299.75" dy="0">IDB 수정·보완</tspan></text>
      <text x="299.75" y="836.75" font-size="11" font-weight="650" fill="#316bbd">Step 1.2</text>
    </g>


    <g filter="url(#card-shadow)">
      <rect x="284.75" y="902.25" width="270" height="90" rx="8" fill="#da251d" stroke="#da251d" stroke-width="2.3"/>
      <rect x="284.75" y="902.25" width="6" height="90" rx="3" fill="#da251d"/>
      <text x="299.75" y="922.25" class="mono" font-size="12.5" font-weight="750" fill="#ffe2df">P06</text>
      <rect x="494.75" y="909.25" width="50" height="24" rx="5" fill="#ffffff" opacity="0.18"/>
      <text x="519.75" y="926.25" text-anchor="middle" font-size="12" font-weight="800" fill="#ffffff">핵심</text>
      <text x="299.75" y="959.25" font-size="15.5" font-weight="800" fill="#ffffff"><tspan x="299.75" dy="0">IDC 공식신고 전송</tspan></text>
      <text x="299.75" y="984.25" font-size="11" font-weight="650" fill="#ffe2df">Article 29</text>
    </g>


    <g filter="url(#card-shadow)">
      <rect x="668.25" y="902.25" width="270" height="90" rx="8" fill="#fff8e8" stroke="#d9901a" stroke-width="2.3"/>
      <rect x="668.25" y="902.25" width="6" height="90" rx="3" fill="#d9901a"/>
      <text x="683.25" y="922.25" class="mono" font-size="12.5" font-weight="750" fill="#a96008">◇ P07</text>
      <rect x="878.25" y="909.25" width="50" height="24" rx="5" fill="#d9901a" opacity="0.14"/>
      <text x="903.25" y="926.25" text-anchor="middle" font-size="12" font-weight="800" fill="#7a4305">병목</text>
      <text x="683.25" y="959.25" font-size="15.5" font-weight="800" fill="#7a4305"><tspan x="683.25" dy="0">신고 접수·등록</tspan></text>
      <text x="683.25" y="984.25" font-size="11" font-weight="650" fill="#a96008">Article 30</text>
    </g>


    <g filter="url(#card-shadow)">
      <rect x="668.25" y="1049.75" width="270" height="90" rx="8" fill="#da251d" stroke="#da251d" stroke-width="2.3"/>
      <rect x="668.25" y="1049.75" width="6" height="90" rx="3" fill="#da251d"/>
      <text x="683.25" y="1069.75" class="mono" font-size="12.5" font-weight="750" fill="#ffe2df">◇ P08</text>
      <rect x="878.25" y="1056.75" width="50" height="24" rx="5" fill="#ffffff" opacity="0.18"/>
      <text x="903.25" y="1073.75" text-anchor="middle" font-size="12" font-weight="800" fill="#ffffff">핵심</text>
      <text x="683.25" y="1106.75" font-size="15.5" font-weight="800" fill="#ffffff"><tspan x="683.25" dy="0">위험분석·분류</tspan></text>
      <text x="683.25" y="1131.75" font-size="11" font-weight="650" fill="#ffe2df">Article 17, Article 31</text>
    </g>


    <g filter="url(#card-shadow)">
      <rect x="668.25" y="1159.75" width="270" height="90" rx="8" fill="#fff8d9" stroke="#e3b505" stroke-width="2.3"/>
      <rect x="668.25" y="1159.75" width="6" height="90" rx="3" fill="#e3b505"/>
      <text x="683.25" y="1179.75" class="mono" font-size="12.5" font-weight="750" fill="#9f7900">P09</text>
      <rect x="878.25" y="1166.75" width="50" height="24" rx="5" fill="#e3b505" opacity="0.14"/>
      <text x="903.25" y="1183.75" text-anchor="middle" font-size="12" font-weight="800" fill="#49370a">선행</text>
      <text x="683.25" y="1216.75" font-size="15.5" font-weight="800" fill="#49370a"><tspan x="683.25" dy="0">Green 자동경로</tspan></text>
      <text x="683.25" y="1241.75" font-size="11" font-weight="650" fill="#9f7900">Step 2.1 Green</text>
    </g>


    <g filter="url(#card-shadow)">
      <rect x="668.25" y="1269.75" width="270" height="90" rx="8" fill="#fff8e8" stroke="#d9901a" stroke-width="2.3"/>
      <rect x="668.25" y="1269.75" width="6" height="90" rx="3" fill="#d9901a"/>
      <text x="683.25" y="1289.75" class="mono" font-size="12.5" font-weight="750" fill="#a96008">P10</text>
      <rect x="878.25" y="1276.75" width="50" height="24" rx="5" fill="#d9901a" opacity="0.14"/>
      <text x="903.25" y="1293.75" text-anchor="middle" font-size="12" font-weight="800" fill="#7a4305">병목</text>
      <text x="683.25" y="1326.75" font-size="15.5" font-weight="800" fill="#7a4305"><tspan x="683.25" dy="0">Yellow 서류검사</tspan></text>
      <text x="683.25" y="1351.75" font-size="11" font-weight="650" fill="#a96008">Step 2.1 Yellow</text>
    </g>


    <g filter="url(#card-shadow)">
      <rect x="668.25" y="1379.75" width="270" height="90" rx="8" fill="#fff8e8" stroke="#d9901a" stroke-width="2.3"/>
      <rect x="668.25" y="1379.75" width="6" height="90" rx="3" fill="#d9901a"/>
      <text x="683.25" y="1399.75" class="mono" font-size="12.5" font-weight="750" fill="#a96008">P11</text>
      <rect x="878.25" y="1386.75" width="50" height="24" rx="5" fill="#d9901a" opacity="0.14"/>
      <text x="903.25" y="1403.75" text-anchor="middle" font-size="12" font-weight="800" fill="#7a4305">병목</text>
      <text x="683.25" y="1436.75" font-size="15.5" font-weight="800" fill="#7a4305"><tspan x="683.25" dy="0">Red 실물검사</tspan></text>
      <text x="683.25" y="1461.75" font-size="11" font-weight="650" fill="#a96008">Step 2.1 Red</text>
    </g>


    <g filter="url(#card-shadow)">
      <rect x="284.75" y="1527.25" width="270" height="90" rx="8" fill="#da251d" stroke="#da251d" stroke-width="2.3"/>
      <rect x="284.75" y="1527.25" width="6" height="90" rx="3" fill="#da251d"/>
      <text x="299.75" y="1547.25" class="mono" font-size="12.5" font-weight="750" fill="#ffe2df">P12</text>
      <rect x="494.75" y="1534.25" width="50" height="24" rx="5" fill="#ffffff" opacity="0.18"/>
      <text x="519.75" y="1551.25" text-anchor="middle" font-size="12" font-weight="800" fill="#ffffff">핵심</text>
      <text x="299.75" y="1584.25" font-size="15.5" font-weight="800" fill="#ffffff"><tspan x="299.75" dy="0">서류 제출·보완</tspan></text>
      <text x="299.75" y="1609.25" font-size="11" font-weight="650" fill="#ffe2df">Article 24, Article 32</text>
    </g>


    <g filter="url(#card-shadow)">
      <rect x="668.25" y="1527.25" width="270" height="90" rx="8" fill="#fff8e8" stroke="#d9901a" stroke-width="2.3"/>
      <rect x="668.25" y="1527.25" width="6" height="90" rx="3" fill="#d9901a"/>
      <text x="683.25" y="1547.25" class="mono" font-size="12.5" font-weight="750" fill="#a96008">P13</text>
      <rect x="878.25" y="1534.25" width="50" height="24" rx="5" fill="#d9901a" opacity="0.14"/>
      <text x="903.25" y="1551.25" text-anchor="middle" font-size="12" font-weight="800" fill="#7a4305">병목</text>
      <text x="683.25" y="1584.25" font-size="15.5" font-weight="800" fill="#7a4305"><tspan x="683.25" dy="0">서류검사</tspan></text>
      <text x="683.25" y="1609.25" font-size="11" font-weight="650" fill="#a96008">완전한 서류 접수 후 2시간</text>
    </g>


    <g filter="url(#card-shadow)">
      <rect x="1435.25" y="1527.25" width="270" height="90" rx="8" fill="#fff8e8" stroke="#d9901a" stroke-width="2.3"/>
      <rect x="1435.25" y="1527.25" width="6" height="90" rx="3" fill="#d9901a"/>
      <text x="1450.25" y="1547.25" class="mono" font-size="12.5" font-weight="750" fill="#a96008">P14</text>
      <rect x="1645.25" y="1534.25" width="50" height="24" rx="5" fill="#d9901a" opacity="0.14"/>
      <text x="1670.25" y="1551.25" text-anchor="middle" font-size="12" font-weight="800" fill="#7a4305">병목</text>
      <text x="1450.25" y="1584.25" font-size="15.5" font-weight="800" fill="#7a4305"><tspan x="1450.25" dy="0">화물 제시·실물검사</tspan></text>
      <text x="1450.25" y="1609.25" font-size="11" font-weight="650" fill="#a96008">화물 제시 후 8시간, 복잡한 경우 최대 2일 연장</text>
    </g>


    <g filter="url(#card-shadow)">
      <rect x="1051.75" y="1527.25" width="270" height="90" rx="8" fill="#ffffff" stroke="#bfc8c6" stroke-width="2.3"/>
      <rect x="1051.75" y="1527.25" width="6" height="90" rx="3" fill="#bfc8c6"/>
      <text x="1066.75" y="1547.25" class="mono" font-size="12.5" font-weight="750" fill="#68746f">P15</text>
      <rect x="1261.75" y="1534.25" width="50" height="24" rx="5" fill="#bfc8c6" opacity="0.14"/>
      <text x="1286.75" y="1551.25" text-anchor="middle" font-size="12" font-weight="800" fill="#17231d">후속</text>
      <text x="1066.75" y="1584.25" font-size="15.5" font-weight="800" fill="#17231d"><tspan x="1066.75" dy="0">전문검사 결과</tspan></text>
      <text x="1066.75" y="1609.25" font-size="11" font-weight="650" fill="#68746f">Yellow/Red required documents</text>
    </g>


    <g filter="url(#card-shadow)">
      <rect x="1435.25" y="1675.75" width="270" height="90" rx="8" fill="#ffffff" stroke="#bfc8c6" stroke-width="2.3"/>
      <rect x="1435.25" y="1675.75" width="6" height="90" rx="3" fill="#bfc8c6"/>
      <text x="1450.25" y="1695.75" class="mono" font-size="12.5" font-weight="750" fill="#68746f">P16</text>
      <rect x="1645.25" y="1682.75" width="50" height="24" rx="5" fill="#bfc8c6" opacity="0.14"/>
      <text x="1670.25" y="1699.75" text-anchor="middle" font-size="12" font-weight="800" fill="#17231d">후속</text>
      <text x="1450.25" y="1732.75" font-size="15.5" font-weight="800" fill="#17231d"><tspan x="1450.25" dy="0">세액·수수료 산정</tspan></text>
      <text x="1450.25" y="1757.75" font-size="11" font-weight="650" fill="#68746f">Article 18, Chapter IV</text>
    </g>


    <g filter="url(#card-shadow)">
      <rect x="284.75" y="1675.75" width="270" height="90" rx="8" fill="#da251d" stroke="#da251d" stroke-width="2.3"/>
      <rect x="284.75" y="1675.75" width="6" height="90" rx="3" fill="#da251d"/>
      <text x="299.75" y="1695.75" class="mono" font-size="12.5" font-weight="750" fill="#ffe2df">P17</text>
      <rect x="494.75" y="1682.75" width="50" height="24" rx="5" fill="#ffffff" opacity="0.18"/>
      <text x="519.75" y="1699.75" text-anchor="middle" font-size="12" font-weight="800" fill="#ffffff">핵심</text>
      <text x="299.75" y="1732.75" font-size="15.5" font-weight="800" fill="#ffffff"><tspan x="299.75" dy="0">세금·20,000 VND 납부</tspan></text>
      <text x="299.75" y="1757.75" font-size="11" font-weight="650" fill="#ffe2df">통관 전 납부 또는 보증</text>
    </g>


    <g filter="url(#card-shadow)">
      <rect x="668.25" y="1824.25" width="270" height="90" rx="8" fill="#da251d" stroke="#da251d" stroke-width="2.3"/>
      <rect x="668.25" y="1824.25" width="6" height="90" rx="3" fill="#da251d"/>
      <text x="683.25" y="1844.25" class="mono" font-size="12.5" font-weight="750" fill="#ffe2df">◇ P18</text>
      <rect x="878.25" y="1831.25" width="50" height="24" rx="5" fill="#ffffff" opacity="0.18"/>
      <text x="903.25" y="1848.25" text-anchor="middle" font-size="12" font-weight="800" fill="#ffffff">핵심</text>
      <text x="683.25" y="1881.25" font-size="15.5" font-weight="800" fill="#ffffff"><tspan x="683.25" dy="0">통관 결정</tspan></text>
      <text x="683.25" y="1906.25" font-size="11" font-weight="650" fill="#ffe2df">Article 37</text>
    </g>


    <g filter="url(#card-shadow)">
      <rect x="1435.25" y="1824.25" width="270" height="90" rx="8" fill="#ffffff" stroke="#bfc8c6" stroke-width="2.3"/>
      <rect x="1435.25" y="1824.25" width="6" height="90" rx="3" fill="#bfc8c6"/>
      <text x="1450.25" y="1844.25" class="mono" font-size="12.5" font-weight="750" fill="#68746f">P19</text>
      <rect x="1645.25" y="1831.25" width="50" height="24" rx="5" fill="#bfc8c6" opacity="0.14"/>
      <text x="1670.25" y="1848.25" text-anchor="middle" font-size="12" font-weight="800" fill="#17231d">후속</text>
      <text x="1450.25" y="1881.25" font-size="15.5" font-weight="800" fill="#17231d"><tspan x="1450.25" dy="0">화물 반출</tspan></text>
      <text x="1450.25" y="1906.25" font-size="11" font-weight="650" fill="#68746f">Article 16, Article 37</text>
    </g>


    <g filter="url(#card-shadow)">
      <rect x="284.75" y="1971.75" width="270" height="90" rx="8" fill="#ffffff" stroke="#bfc8c6" stroke-width="2.3"/>
      <rect x="284.75" y="1971.75" width="6" height="90" rx="3" fill="#bfc8c6"/>
      <text x="299.75" y="1991.75" class="mono" font-size="12.5" font-weight="750" fill="#68746f">P20</text>
      <rect x="494.75" y="1978.75" width="50" height="24" rx="5" fill="#bfc8c6" opacity="0.14"/>
      <text x="519.75" y="1995.75" text-anchor="middle" font-size="12" font-weight="800" fill="#17231d">후속</text>
      <text x="299.75" y="2028.75" font-size="15.5" font-weight="800" fill="#17231d"><tspan x="299.75" dy="0">서류 5년 보관</tspan></text>
      <text x="299.75" y="2053.75" font-size="11" font-weight="650" fill="#68746f">신고 등록일부터 5년</text>
    </g>


    <g filter="url(#card-shadow)">
      <rect x="284.75" y="2081.75" width="270" height="90" rx="8" fill="#edf4ff" stroke="#3478db" stroke-width="2.3"/>
      <rect x="284.75" y="2081.75" width="6" height="90" rx="3" fill="#3478db"/>
      <text x="299.75" y="2101.75" class="mono" font-size="12.5" font-weight="750" fill="#316bbd">P21</text>
      <rect x="494.75" y="2088.75" width="50" height="24" rx="5" fill="#3478db" opacity="0.14"/>
      <text x="519.75" y="2105.75" text-anchor="middle" font-size="12" font-weight="800" fill="#173f7a">회귀</text>
      <text x="299.75" y="2138.75" font-size="15.5" font-weight="800" fill="#173f7a"><tspan x="299.75" dy="0">정정·추징·불복</tspan></text>
      <text x="299.75" y="2163.75" font-size="11" font-weight="650" fill="#316bbd">Article 18, Article 29, Article 32</text>
    </g>


    <text x="38" y="2245" font-size="16" font-weight="800" fill="#18251e">읽는 법</text>
    <rect x="118" y="2219" width="17" height="17" rx="4" fill="#e3b505"/><text x="144" y="2233" font-size="14.5" fill="#526159">선행</text>
    <rect x="216" y="2219" width="17" height="17" rx="4" fill="#da251d"/><text x="242" y="2233" font-size="14.5" fill="#526159">핵심</text>
    <rect x="314" y="2219" width="17" height="17" rx="4" fill="#d9901a"/><text x="340" y="2233" font-size="14.5" fill="#526159">병목</text>
    <rect x="412" y="2219" width="17" height="17" rx="4" fill="#3478db"/><text x="438" y="2233" font-size="14.5" fill="#526159">회귀</text>
    <line x1="512" y1="2237" x2="564" y2="2237" stroke="#53675d" stroke-width="4" marker-end="url(#arrow-sequence)"/>
    <text x="584" y="2243" font-size="15" fill="#526159">절차 순서</text>
    <line x1="724" y1="2237" x2="776" y2="2237" stroke="#da251d" stroke-width="4" stroke-dasharray="10 8" marker-end="url(#arrow-message)"/>
    <text x="796" y="2243" font-size="15" fill="#526159">정보 전달</text>
    <line x1="936" y1="2237" x2="988" y2="2237" stroke="#3478db" stroke-width="4" stroke-dasharray="10 8" marker-end="url(#arrow-loop)"/>
    <text x="1008" y="2243" font-size="15" fill="#526159">보완 회귀</text>
    <text x="38" y="2291" font-size="15.5" font-weight="650" fill="#56655d">단계는 위→아래, 행위자 묶음은 좌→우로 읽습니다.</text>
    <text x="38" y="2321" font-size="14.5" fill="#68776f">원래 6개 베트남 통관 행위자 레인을 4개 레이아웃 묶음으로 배치했으며, 21개 업무와 25개 연결 관계는 유지했습니다.</text>
    <text x="38" y="2361" font-size="13.5" fill="#7b8881">출처: Vietnam Trade Information Portal · Customs Law 54/2014/QH13 기반 파일럿 · 품목별 전문검사는 별도 확인이 필요합니다.</text>
    <text x="1762" y="2361" text-anchor="end" font-size="17" font-weight="750" fill="#da251d">korea100 comparative · Vietnam</text>

</svg>