<svg xmlns="http://www.w3.org/2000/svg" width="1200" height="400" viewBox="0 0 1200 400" role="img" aria-labelledby="title desc">
  <title id="title">대한민국 제도 100 — 법령을 읽는 지도가 됩니다</title>
  <desc id="desc">법령 문장, 업무구조도, 제도 이해로 이어지는 Korea100의 작업 흐름</desc>
  <rect width="1200" height="400" rx="24" fill="#07150f"/>
  <rect x="0" y="0" width="1200" height="8" fill="#18a87b"/>
  <g font-family="-apple-system,BlinkMacSystemFont,'Segoe UI','Noto Sans KR',sans-serif">
    <text x="64" y="78" fill="#7de0bc" font-size="18" font-weight="700" letter-spacing="2">KOREA100 · ADMINISTRATIVE LITERACY</text>
    <text x="64" y="145" fill="#ffffff" font-size="48" font-weight="800">한 장으로 끝내는</text>
    <text x="64" y="204" fill="#ffffff" font-size="48" font-weight="800">대한민국 제도 100</text>
    <text x="64" y="260" fill="#b7c7bf" font-size="21">법령의 줄글을 구조도로 바꿔, 일반 국민이 행정을 읽게 합니다.</text>
    <text x="64" y="322" fill="#7de0bc" font-size="18" font-weight="700">509 제도  ·  6,883 절차 노드  ·  8,746 법령 인용</text>
  </g>
  <g transform="translate(782 60)" font-family="-apple-system,BlinkMacSystemFont,'Segoe UI','Noto Sans KR',sans-serif">
    <rect x="0" y="0" width="345" height="268" rx="16" fill="#f7faf8"/>
    <rect x="20" y="22" width="142" height="34" rx="8" fill="#e4f5ed"/>
    <text x="33" y="45" fill="#146b4f" font-size="15" font-weight="800">법령 · 기관 · 기한</text>
    <path d="M47 87H205V116H280" fill="none" stroke="#53675d" stroke-width="4" stroke-linecap="round" stroke-linejoin="round"/>
    <path d="M280 110l12 6-12 6z" fill="#53675d"/>
    <path d="M121 116V166H205" fill="none" stroke="#18a87b" stroke-width="4" stroke-linecap="round"/>
    <path d="M205 160l12 6-12 6z" fill="#18a87b"/>
    <rect x="25" y="72" width="92" height="34" rx="7" fill="#ffffff" stroke="#b8c7bf" stroke-width="2"/>
    <text x="43" y="94" fill="#17231d" font-size="14" font-weight="700">신청</text>
    <rect x="205" y="98" width="100" height="36" rx="7" fill="#1e293b"/>
    <text x="224" y="121" fill="#ffffff" font-size="14" font-weight="700">심사</text>
    <rect x="205" y="148" width="100" height="36" rx="7" fill="#eef6ff" stroke="#3b82f6" stroke-width="2"/>
    <text x="224" y="171" fill="#1e3a5f" font-size="14" font-weight="700">결과</text>
    <rect x="22" y="214" width="301" height="32" rx="8" fill="#e4f5ed"/>
    <text x="38" y="236" fill="#146b4f" font-size="14" font-weight="800">누가 · 언제 · 무엇을 · 왜 하는가</text>
  </g>
</svg>
